%TF.GenerationSoftware,KiCad,Pcbnew,10.0.5*%
%TF.CreationDate,2026-08-22T04:15:36-04:00*%
%TF.ProjectId,Virtual_Temperature_Monitoring_PCB,56697274-7561-46c5-9f54-656d70657261,rev?*%
%TF.SameCoordinates,Original*%
%TF.FileFunction,Copper,L1,Top*%
%TF.FilePolarity,Positive*%
%FSLAX46Y46*%
G04 Gerber Fmt 4.6, Leading zero omitted, Abs format (unit mm)*
G04 Created by KiCad (PCBNEW 10.0.5) date 2026-08-22 04:15:36*
%MOMM*%
%LPD*%
G01*
G04 APERTURE LIST*
G04 Aperture macros list*
%AMRoundRect*
0 Rectangle with rounded corners*
0 $1 Rounding radius*
0 $2 $3 $4 $5 $6 $7 $8 $9 X,Y pos of 4 corners*
0 Add a 4 corners polygon primitive as box body*
4,1,4,$2,$3,$4,$5,$6,$7,$8,$9,$2,$3,0*
0 Add four circle primitives for the rounded corners*
1,1,$1+$1,$2,$3*
1,1,$1+$1,$4,$5*
1,1,$1+$1,$6,$7*
1,1,$1+$1,$8,$9*
0 Add four rect primitives between the rounded corners*
20,1,$1+$1,$2,$3,$4,$5,0*
20,1,$1+$1,$4,$5,$6,$7,0*
20,1,$1+$1,$6,$7,$8,$9,0*
20,1,$1+$1,$8,$9,$2,$3,0*%
G04 Aperture macros list end*
%TA.AperFunction,ComponentPad*%
%ADD10R,1.700000X1.700000*%
%TD*%
%TA.AperFunction,ComponentPad*%
%ADD11C,1.700000*%
%TD*%
%TA.AperFunction,SMDPad,CuDef*%
%ADD12RoundRect,0.250000X-0.250000X-0.475000X0.250000X-0.475000X0.250000X0.475000X-0.250000X0.475000X0*%
%TD*%
%TA.AperFunction,SMDPad,CuDef*%
%ADD13RoundRect,0.225000X-0.225000X-0.250000X0.225000X-0.250000X0.225000X0.250000X-0.225000X0.250000X0*%
%TD*%
%TA.AperFunction,SMDPad,CuDef*%
%ADD14RoundRect,0.200000X-0.200000X-0.275000X0.200000X-0.275000X0.200000X0.275000X-0.200000X0.275000X0*%
%TD*%
%TA.AperFunction,SMDPad,CuDef*%
%ADD15RoundRect,0.375000X-0.625000X-0.375000X0.625000X-0.375000X0.625000X0.375000X-0.625000X0.375000X0*%
%TD*%
%TA.AperFunction,SMDPad,CuDef*%
%ADD16RoundRect,0.500000X-0.500000X-1.400000X0.500000X-1.400000X0.500000X1.400000X-0.500000X1.400000X0*%
%TD*%
%TA.AperFunction,SMDPad,CuDef*%
%ADD17RoundRect,0.062500X-0.375000X-0.062500X0.375000X-0.062500X0.375000X0.062500X-0.375000X0.062500X0*%
%TD*%
%TA.AperFunction,SMDPad,CuDef*%
%ADD18RoundRect,0.062500X-0.062500X-0.375000X0.062500X-0.375000X0.062500X0.375000X-0.062500X0.375000X0*%
%TD*%
%TA.AperFunction,HeatsinkPad*%
%ADD19R,5.600000X5.600000*%
%TD*%
%TA.AperFunction,Conductor*%
%ADD20C,0.250000*%
%TD*%
G04 APERTURE END LIST*
D10*
%TO.P,J1,1,Pin_1_1*%
%TO.N,GND*%
X157500000Y-105460000D03*
D11*
%TO.P,J1,2,Pin_2_2*%
%TO.N,/UART_TX*%
X157500000Y-108000000D03*
%TO.P,J1,3,Pin_3_3*%
%TO.N,/UART_RX*%
X157500000Y-110540000D03*
%TD*%
D12*
%TO.P,C2,2*%
%TO.N,GND*%
X79450000Y-80500000D03*
%TO.P,C2,1*%
%TO.N,+5V*%
X77550000Y-80500000D03*
%TD*%
D13*
%TO.P,C6,2*%
%TO.N,GND*%
X138275000Y-88000000D03*
%TO.P,C6,1*%
%TO.N,+3.3V*%
X136725000Y-88000000D03*
%TD*%
D14*
%TO.P,R1,2*%
%TO.N,/TEMP_FILTERED*%
X125325000Y-100500000D03*
%TO.P,R1,1*%
%TO.N,/TEMP_SENSOR*%
X123675000Y-100500000D03*
%TD*%
D13*
%TO.P,C5,2*%
%TO.N,GND*%
X150775000Y-97500000D03*
%TO.P,C5,1*%
%TO.N,+3.3V*%
X149225000Y-97500000D03*
%TD*%
%TO.P,C4,2*%
%TO.N,GND*%
X143775000Y-109500000D03*
%TO.P,C4,1*%
%TO.N,+3.3V*%
X142225000Y-109500000D03*
%TD*%
D15*
%TO.P,U2,1,GND_1*%
%TO.N,GND*%
X92350000Y-80200000D03*
%TO.P,U2,2,VO_2*%
%TO.N,+3.3V*%
X92350000Y-82500000D03*
D16*
X98650000Y-82500000D03*
D15*
%TO.P,U2,3,VI_3*%
%TO.N,+5V*%
X92350000Y-84800000D03*
%TD*%
D17*
%TO.P,U1,1,VBAT_1*%
%TO.N,+3.3V*%
X135862500Y-97050000D03*
%TO.P,U1,2,PC13_2*%
%TO.N,unconnected-(U1-PC13-Pad2)*%
X135862500Y-97550000D03*
%TO.P,U1,3,PC14_3*%
%TO.N,unconnected-(U1-PC14-Pad3)*%
X135862500Y-98050000D03*
%TO.P,U1,4,PC15_4*%
%TO.N,unconnected-(U1-PC15-Pad4)*%
X135862500Y-98550000D03*
%TO.P,U1,5,PF0_5*%
%TO.N,unconnected-(U1-PF0-Pad5)*%
X135862500Y-99050000D03*
%TO.P,U1,6,PF1_6*%
%TO.N,unconnected-(U1-PF1-Pad6)*%
X135862500Y-99550000D03*
%TO.P,U1,7,PG10_7*%
%TO.N,unconnected-(U1-PG10-Pad7)*%
X135862500Y-100050000D03*
%TO.P,U1,8,PA0_8*%
%TO.N,/TEMP_FILTERED*%
X135862500Y-100550000D03*
%TO.P,U1,9,PA1_9*%
%TO.N,unconnected-(U1-PA1-Pad9)*%
X135862500Y-101050000D03*
%TO.P,U1,10,PA2_10*%
%TO.N,unconnected-(U1-PA2-Pad10)*%
X135862500Y-101550000D03*
%TO.P,U1,11,PA3_11*%
%TO.N,unconnected-(U1-PA3-Pad11)*%
X135862500Y-102050000D03*
%TO.P,U1,12,PA4_12*%
%TO.N,unconnected-(U1-PA4-Pad12)*%
X135862500Y-102550000D03*
D18*
%TO.P,U1,13,PA5_13*%
%TO.N,unconnected-(U1-PA5-Pad13)*%
X136550000Y-103237500D03*
%TO.P,U1,14,PA6_14*%
%TO.N,unconnected-(U1-PA6-Pad14)*%
X137050000Y-103237500D03*
%TO.P,U1,15,PA7_15*%
%TO.N,unconnected-(U1-PA7-Pad15)*%
X137550000Y-103237500D03*
%TO.P,U1,16,PC4_16*%
%TO.N,unconnected-(U1-PC4-Pad16)*%
X138050000Y-103237500D03*
%TO.P,U1,17,PB0_17*%
%TO.N,unconnected-(U1-PB0-Pad17)*%
X138550000Y-103237500D03*
%TO.P,U1,18,PB1_18*%
%TO.N,unconnected-(U1-PB1-Pad18)*%
X139050000Y-103237500D03*
%TO.P,U1,19,PB2_19*%
%TO.N,unconnected-(U1-PB2-Pad19)*%
X139550000Y-103237500D03*
%TO.P,U1,20,VREF+_20*%
%TO.N,+3.3V*%
X140050000Y-103237500D03*
%TO.P,U1,21,VDDA_21*%
X140550000Y-103237500D03*
%TO.P,U1,22,PB10_22*%
%TO.N,unconnected-(U1-PB10-Pad22)*%
X141050000Y-103237500D03*
%TO.P,U1,23,VDD_23*%
%TO.N,+3.3V*%
X141550000Y-103237500D03*
%TO.P,U1,24,PB11_24*%
%TO.N,unconnected-(U1-PB11-Pad24)*%
X142050000Y-103237500D03*
D17*
%TO.P,U1,25,PB12_25*%
%TO.N,unconnected-(U1-PB12-Pad25)*%
X142737500Y-102550000D03*
%TO.P,U1,26,PB13_26*%
%TO.N,unconnected-(U1-PB13-Pad26)*%
X142737500Y-102050000D03*
%TO.P,U1,27,PB14_27*%
%TO.N,unconnected-(U1-PB14-Pad27)*%
X142737500Y-101550000D03*
%TO.P,U1,28,PB15_28*%
%TO.N,unconnected-(U1-PB15-Pad28)*%
X142737500Y-101050000D03*
%TO.P,U1,29,PC6_29*%
%TO.N,unconnected-(U1-PC6-Pad29)*%
X142737500Y-100550000D03*
%TO.P,U1,30,PA8_30*%
%TO.N,unconnected-(U1-PA8-Pad30)*%
X142737500Y-100050000D03*
%TO.P,U1,31,PA9_31*%
%TO.N,/UART_TX*%
X142737500Y-99550000D03*
%TO.P,U1,32,PA10_32*%
%TO.N,/UART_RX*%
X142737500Y-99050000D03*
%TO.P,U1,33,PA11_33*%
%TO.N,unconnected-(U1-PA11-Pad33)*%
X142737500Y-98550000D03*
%TO.P,U1,34,PA12_34*%
%TO.N,unconnected-(U1-PA12-Pad34)*%
X142737500Y-98050000D03*
%TO.P,U1,35,VDD_35*%
%TO.N,+3.3V*%
X142737500Y-97550000D03*
%TO.P,U1,36,PA13_36*%
%TO.N,unconnected-(U1-PA13-Pad36)*%
X142737500Y-97050000D03*
D18*
%TO.P,U1,37,PA14_37*%
%TO.N,unconnected-(U1-PA14-Pad37)*%
X142050000Y-96362500D03*
%TO.P,U1,38,PA15_38*%
%TO.N,unconnected-(U1-PA15-Pad38)*%
X141550000Y-96362500D03*
%TO.P,U1,39,PC10_39*%
%TO.N,unconnected-(U1-PC10-Pad39)*%
X141050000Y-96362500D03*
%TO.P,U1,40,PC11_40*%
%TO.N,unconnected-(U1-PC11-Pad40)*%
X140550000Y-96362500D03*
%TO.P,U1,41,PB3_41*%
%TO.N,unconnected-(U1-PB3-Pad41)*%
X140050000Y-96362500D03*
%TO.P,U1,42,PB4_42*%
%TO.N,unconnected-(U1-PB4-Pad42)*%
X139550000Y-96362500D03*
%TO.P,U1,43,PB5_43*%
%TO.N,unconnected-(U1-PB5-Pad43)*%
X139050000Y-96362500D03*
%TO.P,U1,44,PB6_44*%
%TO.N,unconnected-(U1-PB6-Pad44)*%
X138550000Y-96362500D03*
%TO.P,U1,45,PB7_45*%
%TO.N,unconnected-(U1-PB7-Pad45)*%
X138050000Y-96362500D03*
%TO.P,U1,46,PB8_46*%
%TO.N,unconnected-(U1-PB8-Pad46)*%
X137550000Y-96362500D03*
%TO.P,U1,47,PB9_47*%
%TO.N,unconnected-(U1-PB9-Pad47)*%
X137050000Y-96362500D03*
%TO.P,U1,48,VDD_48*%
%TO.N,+3.3V*%
X136550000Y-96362500D03*
D19*
%TO.P,U1,49,VSS_49*%
%TO.N,GND*%
X139300000Y-99800000D03*
%TD*%
D10*
%TO.P,J2,1,Pin_1_1*%
%TO.N,+5V*%
X63500000Y-81225000D03*
D11*
%TO.P,J2,2,Pin_2_2*%
%TO.N,GND*%
X63500000Y-83765000D03*
%TD*%
D12*
%TO.P,C3,1*%
%TO.N,+3.3V*%
X113050000Y-83000000D03*
%TO.P,C3,2*%
%TO.N,GND*%
X114950000Y-83000000D03*
%TD*%
D13*
%TO.P,C1,1*%
%TO.N,/TEMP_FILTERED*%
X127500000Y-103500000D03*
%TO.P,C1,2*%
%TO.N,GND*%
X129050000Y-103500000D03*
%TD*%
%TO.N,/UART_TX*%
D20*
X144000000Y-100325260D02*
X144000000Y-101000000D01*
X144000000Y-100325260D02*
X143224740Y-99550000D01*
%TO.N,+3.3V*%
X133550000Y-97050000D02*
X133500000Y-97000000D01*
X136500000Y-93500000D02*
X133500000Y-93500000D01*
X145000000Y-93500000D02*
X137500000Y-93500000D01*
X149225000Y-97500000D02*
X145500000Y-97500000D01*
X145500000Y-97500000D02*
X145000000Y-97000000D01*
X145000000Y-97000000D02*
X145000000Y-93500000D01*
X141000000Y-109500000D02*
X139500000Y-108000000D01*
X139500000Y-108000000D02*
X141550000Y-105950000D01*
X142225000Y-109500000D02*
X141000000Y-109500000D01*
%TO.N,/UART_RX*%
X144500000Y-99000000D02*
X144450000Y-99050000D01*
X160500000Y-100500000D02*
X146000000Y-100500000D01*
X160500000Y-110000000D02*
X160500000Y-100500000D01*
X159960000Y-110540000D02*
X160500000Y-110000000D01*
X144450000Y-99050000D02*
X142737500Y-99050000D01*
X157500000Y-110540000D02*
X159960000Y-110540000D01*
%TO.N,/UART_TX*%
X143224740Y-99550000D02*
X142737500Y-99550000D01*
X150500000Y-101000000D02*
X144000000Y-101000000D01*
X157500000Y-108000000D02*
X150500000Y-101000000D01*
%TO.N,+3.3V*%
X122000000Y-105500000D02*
X121500000Y-105000000D01*
X121500000Y-93500000D02*
X132000000Y-93500000D01*
X121500000Y-105000000D02*
X121500000Y-93500000D01*
X140000000Y-105500000D02*
X122000000Y-105500000D01*
%TO.N,/TEMP_FILTERED*%
X127500000Y-102000000D02*
X127500000Y-103500000D01*
X126000000Y-100500000D02*
X127500000Y-102000000D01*
X130450000Y-100550000D02*
X135862500Y-100550000D01*
X127500000Y-103500000D02*
X130450000Y-100550000D01*
X125325000Y-100500000D02*
X126000000Y-100500000D01*
%TO.N,+3.3V*%
X140050000Y-103237500D02*
X140050000Y-105450000D01*
X140050000Y-105450000D02*
X140000000Y-105500000D01*
X140000000Y-105500000D02*
X140500000Y-105500000D01*
X140550000Y-105450000D02*
X140500000Y-105500000D01*
X140550000Y-103237500D02*
X140550000Y-105450000D01*
X140500000Y-105500000D02*
X141100000Y-105500000D01*
X145000000Y-97500000D02*
X145000000Y-97000000D01*
X142787500Y-97500000D02*
X145000000Y-97500000D01*
X142737500Y-97550000D02*
X142787500Y-97500000D01*
X141100000Y-105500000D02*
X141550000Y-105950000D01*
X141550000Y-105950000D02*
X141550000Y-103237500D01*
X137500000Y-110000000D02*
X139500000Y-108000000D01*
X98650000Y-88650000D02*
X120000000Y-110000000D01*
X98650000Y-82500000D02*
X98650000Y-88650000D01*
X120000000Y-110000000D02*
X137500000Y-110000000D01*
X112550000Y-82500000D02*
X98650000Y-82500000D01*
X113050000Y-83000000D02*
X112550000Y-82500000D01*
%TO.N,+5V*%
X73500000Y-84550000D02*
X73500000Y-85000000D01*
X77550000Y-80500000D02*
X73500000Y-84550000D01*
X73700000Y-84800000D02*
X92350000Y-84800000D01*
X69725000Y-81225000D02*
X73500000Y-85000000D01*
X63500000Y-81225000D02*
X69725000Y-81225000D01*
X73500000Y-85000000D02*
X73700000Y-84800000D01*
%TO.N,+3.3V*%
X137500000Y-93500000D02*
X136500000Y-93500000D01*
X136725000Y-92725000D02*
X137500000Y-93500000D01*
X136725000Y-88000000D02*
X136725000Y-92725000D01*
X92350000Y-82500000D02*
X92500000Y-82500000D01*
X92500000Y-82500000D02*
X98650000Y-88650000D01*
X135862500Y-97050000D02*
X133550000Y-97050000D01*
X133500000Y-93500000D02*
X132000000Y-93500000D01*
%TO.N,/UART_RX*%
X144500000Y-99000000D02*
X146000000Y-100500000D01*
%TO.N,+3.3V*%
X136550000Y-96362500D02*
X136550000Y-93550000D01*
X136550000Y-93550000D02*
X136500000Y-93500000D01*
X133500000Y-97000000D02*
X133500000Y-93500000D01*
%TD*%
%TA.AperFunction,Conductor*%
%TO.N,GND*%
G36*
X133067539Y-93895185D02*
G01*
X133113294Y-93947989D01*
X133124500Y-93999500D01*
X133124500Y-97049435D01*
X133150090Y-97144938D01*
X133150091Y-97144939D01*
X133150091Y-97144940D01*
X133163337Y-97167882D01*
X133199525Y-97230562D01*
X133199526Y-97230563D01*
X133319437Y-97350475D01*
X133405063Y-97399911D01*
X133500564Y-97425500D01*
X133500565Y-97425500D01*
X135050500Y-97425500D01*
X135117539Y-97445185D01*
X135163294Y-97497989D01*
X135174500Y-97549499D01*
X135174500Y-97649180D01*
X135180500Y-97694756D01*
X135180503Y-97694766D01*
X135205138Y-97747596D01*
X135215630Y-97816673D01*
X135205139Y-97852403D01*
X135194370Y-97875499D01*
X135180500Y-97905243D01*
X135174501Y-97950811D01*
X135174500Y-97950827D01*
X135174500Y-98149180D01*
X135180500Y-98194756D01*
X135180503Y-98194766D01*
X135205138Y-98247596D01*
X135215630Y-98316673D01*
X135205139Y-98352404D01*
X135180500Y-98405243D01*
X135174501Y-98450811D01*
X135174500Y-98450827D01*
X135174500Y-98649180D01*
X135180500Y-98694756D01*
X135180503Y-98694766D01*
X135205138Y-98747596D01*
X135215630Y-98816673D01*
X135205139Y-98852404D01*
X135180500Y-98905243D01*
X135174501Y-98950811D01*
X135174500Y-98950827D01*
X135174500Y-99149180D01*
X135180500Y-99194756D01*
X135180503Y-99194766D01*
X135205138Y-99247596D01*
X135215630Y-99316673D01*
X135205139Y-99352404D01*
X135180500Y-99405243D01*
X135174501Y-99450811D01*
X135174500Y-99450827D01*
X135174500Y-99649180D01*
X135180500Y-99694756D01*
X135180503Y-99694766D01*
X135205138Y-99747596D01*
X135215630Y-99816673D01*
X135205139Y-99852403D01*
X135181616Y-99902850D01*
X135180500Y-99905243D01*
X135174501Y-99950811D01*
X135174500Y-99950821D01*
X135174500Y-100041454D01*
X135174501Y-100050499D01*
X135154817Y-100117538D01*
X135102014Y-100163294D01*
X135050501Y-100174500D01*
X130400564Y-100174500D01*
X130352812Y-100187295D01*
X130352811Y-100187294D01*
X130305063Y-100200089D01*
X130305062Y-100200089D01*
X130237530Y-100239079D01*
X130222780Y-100247596D01*
X130219435Y-100249527D01*
X128087181Y-102381782D01*
X128025858Y-102415267D01*
X127956166Y-102410283D01*
X127900233Y-102368411D01*
X127875816Y-102302947D01*
X127875500Y-102294101D01*
X127875500Y-101950567D01*
X127875500Y-101950565D01*
X127849910Y-101855062D01*
X127800475Y-101769438D01*
X127730562Y-101699525D01*
X126230563Y-100199526D01*
X126230562Y-100199525D01*
X126144938Y-100150090D01*
X126097186Y-100137295D01*
X126097184Y-100137294D01*
X126097182Y-100137293D01*
X126049436Y-100124500D01*
X126041377Y-100123439D01*
X126041753Y-100120581D01*
X125988060Y-100104815D01*
X125942305Y-100052011D01*
X125938065Y-100041474D01*
X125927793Y-100012118D01*
X125847150Y-99902850D01*
X125737882Y-99822207D01*
X125737880Y-99822206D01*
X125609700Y-99777353D01*
X125579270Y-99774500D01*
X125579266Y-99774500D01*
X125070734Y-99774500D01*
X125070730Y-99774500D01*
X125040300Y-99777353D01*
X125040298Y-99777353D01*
X124912119Y-99822206D01*
X124912117Y-99822207D01*
X124802850Y-99902850D01*
X124722207Y-100012117D01*
X124722206Y-100012119D01*
X124677353Y-100140298D01*
X124677353Y-100140300D01*
X124674500Y-100170730D01*
X124674500Y-100829269D01*
X124677353Y-100859699D01*
X124677353Y-100859701D01*
X124713087Y-100961819D01*
X124722207Y-100987882D01*
X124802850Y-101097150D01*
X124912118Y-101177793D01*
X124939208Y-101187272D01*
X125040299Y-101222646D01*
X125070730Y-101225500D01*
X125070734Y-101225500D01*
X125579270Y-101225500D01*
X125609699Y-101222646D01*
X125609701Y-101222646D01*
X125673790Y-101200219D01*
X125737882Y-101177793D01*
X125847150Y-101097150D01*
X125854567Y-101087100D01*
X125910213Y-101044851D01*
X125979869Y-101039392D01*
X126041419Y-101072459D01*
X126042017Y-101073054D01*
X127088181Y-102119218D01*
X127121666Y-102180541D01*
X127124500Y-102206899D01*
X127124500Y-102712541D01*
X127104815Y-102779580D01*
X127052011Y-102825335D01*
X127045071Y-102828209D01*
X127044773Y-102828372D01*
X126935313Y-102910313D01*
X126853373Y-103019771D01*
X126805587Y-103147889D01*
X126799500Y-103204498D01*
X126799500Y-103795481D01*
X126799501Y-103795490D01*
X126805587Y-103852114D01*
X126832960Y-103925500D01*
X126853372Y-103980226D01*
X126935313Y-104089687D01*
X127044774Y-104171628D01*
X127172886Y-104219412D01*
X127229515Y-104225500D01*
X127770484Y-104225499D01*
X127827114Y-104219412D01*
X127955226Y-104171628D01*
X128036804Y-104110559D01*
X128102264Y-104086143D01*
X128170538Y-104100994D01*
X128216650Y-104144730D01*
X128252424Y-104202728D01*
X128252427Y-104202732D01*
X128372267Y-104322572D01*
X128372271Y-104322575D01*
X128516507Y-104411542D01*
X128516518Y-104411547D01*
X128677393Y-104464855D01*
X128776683Y-104474999D01*
X129300000Y-104474999D01*
X129323308Y-104474999D01*
X129323322Y-104474998D01*
X129422607Y-104464855D01*
X129583481Y-104411547D01*
X129583492Y-104411542D01*
X129727728Y-104322575D01*
X129727732Y-104322572D01*
X129847572Y-104202732D01*
X129847575Y-104202728D01*
X129936542Y-104058492D01*
X129936547Y-104058481D01*
X129989855Y-103897606D01*
X129999999Y-103798322D01*
X130000000Y-103798309D01*
X130000000Y-103750000D01*
X129300000Y-103750000D01*
X129300000Y-104474999D01*
X128776683Y-104474999D01*
X128800000Y-104474998D01*
X128800000Y-103624000D01*
X128819685Y-103556961D01*
X128872489Y-103511206D01*
X128924000Y-103500000D01*
X129050000Y-103500000D01*
X129050000Y-103374000D01*
X129069685Y-103306961D01*
X129122489Y-103261206D01*
X129174000Y-103250000D01*
X129999999Y-103250000D01*
X129999999Y-103201692D01*
X129999998Y-103201677D01*
X129989855Y-103102392D01*
X129936547Y-102941518D01*
X129936542Y-102941507D01*
X129847575Y-102797271D01*
X129847572Y-102797267D01*
X129727732Y-102677427D01*
X129727728Y-102677424D01*
X129583492Y-102588457D01*
X129583481Y-102588452D01*
X129422606Y-102535144D01*
X129323322Y-102525000D01*
X129305397Y-102525000D01*
X129238358Y-102505315D01*
X129192603Y-102452511D01*
X129182659Y-102383353D01*
X129211684Y-102319797D01*
X129217696Y-102313339D01*
X130569218Y-100961819D01*
X130630541Y-100928334D01*
X130656899Y-100925500D01*
X135050500Y-100925500D01*
X135117539Y-100945185D01*
X135163294Y-100997989D01*
X135174500Y-101049499D01*
X135174500Y-101149180D01*
X135180500Y-101194756D01*
X135180503Y-101194766D01*
X135205138Y-101247596D01*
X135215630Y-101316673D01*
X135205139Y-101352404D01*
X135180500Y-101405243D01*
X135174501Y-101450811D01*
X135174500Y-101450827D01*
X135174500Y-101649180D01*
X135180500Y-101694756D01*
X135180503Y-101694766D01*
X135205138Y-101747596D01*
X135215630Y-101816673D01*
X135205139Y-101852403D01*
X135203900Y-101855062D01*
X135180500Y-101905243D01*
X135174501Y-101950811D01*
X135174500Y-101950827D01*
X135174500Y-102149180D01*
X135180500Y-102194756D01*
X135180503Y-102194766D01*
X135205138Y-102247596D01*
X135215630Y-102316673D01*
X135205139Y-102352403D01*
X135180503Y-102405237D01*
X135180500Y-102405243D01*
X135174501Y-102450811D01*
X135174500Y-102450827D01*
X135174500Y-102649180D01*
X135178219Y-102677427D01*
X135180501Y-102694760D01*
X135227150Y-102794799D01*
X135305201Y-102872850D01*
X135405240Y-102919499D01*
X135450821Y-102925500D01*
X136050500Y-102925499D01*
X136117539Y-102945183D01*
X136163294Y-102997987D01*
X136174500Y-103049499D01*
X136174500Y-103649180D01*
X136180500Y-103694756D01*
X136180501Y-103694760D01*
X136227150Y-103794799D01*
X136305201Y-103872850D01*
X136405240Y-103919499D01*
X136450821Y-103925500D01*
X136649178Y-103925499D01*
X136649180Y-103925499D01*
X136664372Y-103923499D01*
X136694760Y-103919499D01*
X136747597Y-103894860D01*
X136816671Y-103884369D01*
X136852401Y-103894859D01*
X136905240Y-103919499D01*
X136950821Y-103925500D01*
X137149178Y-103925499D01*
X137149180Y-103925499D01*
X137164372Y-103923499D01*
X137194760Y-103919499D01*
X137247597Y-103894860D01*
X137316671Y-103884369D01*
X137352401Y-103894859D01*
X137405240Y-103919499D01*
X137450821Y-103925500D01*
X137649178Y-103925499D01*
X137649180Y-103925499D01*
X137664372Y-103923499D01*
X137694760Y-103919499D01*
X137747597Y-103894860D01*
X137816671Y-103884369D01*
X137852401Y-103894859D01*
X137905240Y-103919499D01*
X137950821Y-103925500D01*
X138149178Y-103925499D01*
X138149180Y-103925499D01*
X138164372Y-103923499D01*
X138194760Y-103919499D01*
X138247597Y-103894860D01*
X138316671Y-103884369D01*
X138352401Y-103894859D01*
X138405240Y-103919499D01*
X138450821Y-103925500D01*
X138649178Y-103925499D01*
X138649180Y-103925499D01*
X138664372Y-103923499D01*
X138694760Y-103919499D01*
X138747597Y-103894860D01*
X138816671Y-103884369D01*
X138852401Y-103894859D01*
X138905240Y-103919499D01*
X138950821Y-103925500D01*
X139149178Y-103925499D01*
X139149180Y-103925499D01*
X139164372Y-103923499D01*
X139194760Y-103919499D01*
X139247597Y-103894860D01*
X139316671Y-103884369D01*
X139352401Y-103894859D01*
X139405240Y-103919499D01*
X139450821Y-103925500D01*
X139550500Y-103925499D01*
X139617538Y-103945183D01*
X139663294Y-103997986D01*
X139674500Y-104049499D01*
X139674500Y-105000500D01*
X139654815Y-105067539D01*
X139602011Y-105113294D01*
X139550500Y-105124500D01*
X122206900Y-105124500D01*
X122139861Y-105104815D01*
X122119219Y-105088181D01*
X121911819Y-104880781D01*
X121878334Y-104819458D01*
X121875500Y-104793100D01*
X121875500Y-100170730D01*
X123024500Y-100170730D01*
X123024500Y-100829269D01*
X123027353Y-100859699D01*
X123027353Y-100859701D01*
X123063087Y-100961819D01*
X123072207Y-100987882D01*
X123152850Y-101097150D01*
X123262118Y-101177793D01*
X123289208Y-101187272D01*
X123390299Y-101222646D01*
X123420730Y-101225500D01*
X123420734Y-101225500D01*
X123929270Y-101225500D01*
X123959699Y-101222646D01*
X123959701Y-101222646D01*
X124023790Y-101200219D01*
X124087882Y-101177793D01*
X124197150Y-101097150D01*
X124277793Y-100987882D01*
X124310229Y-100895185D01*
X124322646Y-100859701D01*
X124322646Y-100859699D01*
X124325500Y-100829269D01*
X124325500Y-100170730D01*
X124322646Y-100140300D01*
X124322646Y-100140298D01*
X124277793Y-100012119D01*
X124277792Y-100012117D01*
X124197150Y-99902850D01*
X124087882Y-99822207D01*
X124087880Y-99822206D01*
X123959700Y-99777353D01*
X123929270Y-99774500D01*
X123929266Y-99774500D01*
X123420734Y-99774500D01*
X123420730Y-99774500D01*
X123390300Y-99777353D01*
X123390298Y-99777353D01*
X123262119Y-99822206D01*
X123262117Y-99822207D01*
X123152850Y-99902850D01*
X123072207Y-100012117D01*
X123072206Y-100012119D01*
X123027353Y-100140298D01*
X123027353Y-100140300D01*
X123024500Y-100170730D01*
X121875500Y-100170730D01*
X121875500Y-93999500D01*
X121895185Y-93932461D01*
X121947989Y-93886706D01*
X121999500Y-93875500D01*
X131950565Y-93875500D01*
X133000500Y-93875500D01*
X133067539Y-93895185D01*
G37*
%TD.AperFunction*%
%TA.AperFunction,Conductor*%
G36*
X141803837Y-97011318D02*
G01*
X141816671Y-97009369D01*
X141852401Y-97019859D01*
X141905240Y-97044499D01*
X141943685Y-97049560D01*
X142007581Y-97077825D01*
X142046053Y-97136149D01*
X142050440Y-97156315D01*
X142055500Y-97194756D01*
X142055503Y-97194766D01*
X142080138Y-97247596D01*
X142082233Y-97261392D01*
X142088922Y-97273642D01*
X142087376Y-97295252D01*
X142090630Y-97316673D01*
X142084933Y-97329412D01*
X142083938Y-97343334D01*
X142080140Y-97352400D01*
X142057987Y-97399910D01*
X142055500Y-97405243D01*
X142049501Y-97450811D01*
X142049500Y-97450827D01*
X142049500Y-97649180D01*
X142055500Y-97694756D01*
X142055503Y-97694766D01*
X142080138Y-97747596D01*
X142090630Y-97816673D01*
X142080139Y-97852403D01*
X142069370Y-97875499D01*
X142055500Y-97905243D01*
X142049501Y-97950811D01*
X142049500Y-97950827D01*
X142049500Y-98149180D01*
X142055500Y-98194756D01*
X142055503Y-98194766D01*
X142080138Y-98247596D01*
X142090630Y-98316673D01*
X142080139Y-98352404D01*
X142055500Y-98405243D01*
X142049501Y-98450811D01*
X142049500Y-98450827D01*
X142049500Y-98649180D01*
X142055500Y-98694756D01*
X142055503Y-98694766D01*
X142080138Y-98747596D01*
X142090630Y-98816673D01*
X142080139Y-98852404D01*
X142055500Y-98905243D01*
X142049501Y-98950811D01*
X142049500Y-98950827D01*
X142049500Y-99149180D01*
X142055500Y-99194756D01*
X142055503Y-99194766D01*
X142080138Y-99247596D01*
X142090630Y-99316673D01*
X142080139Y-99352404D01*
X142055500Y-99405243D01*
X142049501Y-99450811D01*
X142049500Y-99450827D01*
X142049500Y-99649180D01*
X142055500Y-99694756D01*
X142055503Y-99694766D01*
X142080138Y-99747596D01*
X142090630Y-99816673D01*
X142080139Y-99852403D01*
X142056616Y-99902850D01*
X142055500Y-99905243D01*
X142049501Y-99950811D01*
X142049500Y-99950827D01*
X142049500Y-100149180D01*
X142055500Y-100194756D01*
X142055503Y-100194766D01*
X142080138Y-100247596D01*
X142090630Y-100316673D01*
X142080139Y-100352403D01*
X142078900Y-100355062D01*
X142055500Y-100405243D01*
X142049501Y-100450811D01*
X142049500Y-100450827D01*
X142049500Y-100649180D01*
X142055500Y-100694756D01*
X142055503Y-100694766D01*
X142080138Y-100747596D01*
X142090630Y-100816673D01*
X142080139Y-100852404D01*
X142055500Y-100905243D01*
X142049501Y-100950811D01*
X142049500Y-100950827D01*
X142049500Y-101149180D01*
X142055500Y-101194756D01*
X142055503Y-101194766D01*
X142080138Y-101247596D01*
X142090630Y-101316673D01*
X142080139Y-101352404D01*
X142055500Y-101405243D01*
X142049501Y-101450811D01*
X142049500Y-101450827D01*
X142049500Y-101649180D01*
X142055500Y-101694756D01*
X142055503Y-101694766D01*
X142080138Y-101747596D01*
X142090630Y-101816673D01*
X142080139Y-101852403D01*
X142078900Y-101855062D01*
X142055500Y-101905243D01*
X142049501Y-101950811D01*
X142049500Y-101950827D01*
X142049500Y-102149180D01*
X142055500Y-102194756D01*
X142055503Y-102194766D01*
X142080138Y-102247596D01*
X142083534Y-102269959D01*
X142091440Y-102291154D01*
X142088869Y-102305084D01*
X142090630Y-102316673D01*
X142083992Y-102331516D01*
X142080139Y-102352404D01*
X142055500Y-102405242D01*
X142050439Y-102443687D01*
X142022172Y-102507583D01*
X141963848Y-102546054D01*
X141943684Y-102550440D01*
X141905243Y-102555500D01*
X141905238Y-102555501D01*
X141852403Y-102580139D01*
X141838604Y-102582234D01*
X141826357Y-102588922D01*
X141804747Y-102587376D01*
X141783325Y-102590630D01*
X141761781Y-102584303D01*
X141756665Y-102583938D01*
X141754166Y-102582067D01*
X141747595Y-102580138D01*
X141694759Y-102555500D01*
X141649188Y-102549501D01*
X141649185Y-102549500D01*
X141649179Y-102549500D01*
X141649172Y-102549500D01*
X141450819Y-102549500D01*
X141405243Y-102555500D01*
X141405238Y-102555501D01*
X141352403Y-102580139D01*
X141283325Y-102590630D01*
X141247595Y-102580138D01*
X141194759Y-102555500D01*
X141149188Y-102549501D01*
X141149185Y-102549500D01*
X141149179Y-102549500D01*
X141149172Y-102549500D01*
X140950819Y-102549500D01*
X140905243Y-102555500D01*
X140905238Y-102555501D01*
X140852403Y-102580139D01*
X140783325Y-102590630D01*
X140747595Y-102580138D01*
X140694759Y-102555500D01*
X140649188Y-102549501D01*
X140649185Y-102549500D01*
X140649179Y-102549500D01*
X140649172Y-102549500D01*
X140450819Y-102549500D01*
X140405243Y-102555500D01*
X140405238Y-102555501D01*
X140352403Y-102580139D01*
X140283325Y-102590630D01*
X140247595Y-102580138D01*
X140194759Y-102555500D01*
X140149188Y-102549501D01*
X140149185Y-102549500D01*
X140149179Y-102549500D01*
X140149172Y-102549500D01*
X139950819Y-102549500D01*
X139905243Y-102555500D01*
X139905238Y-102555501D01*
X139852403Y-102580139D01*
X139783325Y-102590630D01*
X139747595Y-102580138D01*
X139694759Y-102555500D01*
X139649188Y-102549501D01*
X139649185Y-102549500D01*
X139649179Y-102549500D01*
X139649172Y-102549500D01*
X139450819Y-102549500D01*
X139405243Y-102555500D01*
X139405238Y-102555501D01*
X139352403Y-102580139D01*
X139283325Y-102590630D01*
X139247595Y-102580138D01*
X139194759Y-102555500D01*
X139149188Y-102549501D01*
X139149185Y-102549500D01*
X139149179Y-102549500D01*
X139149172Y-102549500D01*
X138950819Y-102549500D01*
X138905243Y-102555500D01*
X138905238Y-102555501D01*
X138852403Y-102580139D01*
X138783325Y-102590630D01*
X138747595Y-102580138D01*
X138694759Y-102555500D01*
X138649188Y-102549501D01*
X138649185Y-102549500D01*
X138649179Y-102549500D01*
X138649172Y-102549500D01*
X138450819Y-102549500D01*
X138405243Y-102555500D01*
X138405238Y-102555501D01*
X138352403Y-102580139D01*
X138283325Y-102590630D01*
X138247595Y-102580138D01*
X138194759Y-102555500D01*
X138149188Y-102549501D01*
X138149185Y-102549500D01*
X138149179Y-102549500D01*
X138149172Y-102549500D01*
X137950819Y-102549500D01*
X137905243Y-102555500D01*
X137905238Y-102555501D01*
X137852403Y-102580139D01*
X137783325Y-102590630D01*
X137747595Y-102580138D01*
X137694759Y-102555500D01*
X137649188Y-102549501D01*
X137649185Y-102549500D01*
X137649179Y-102549500D01*
X137649172Y-102549500D01*
X137450819Y-102549500D01*
X137405243Y-102555500D01*
X137405238Y-102555501D01*
X137352403Y-102580139D01*
X137283325Y-102590630D01*
X137247595Y-102580138D01*
X137194759Y-102555500D01*
X137149188Y-102549501D01*
X137149185Y-102549500D01*
X137149179Y-102549500D01*
X137149172Y-102549500D01*
X136950819Y-102549500D01*
X136905243Y-102555500D01*
X136905238Y-102555501D01*
X136852403Y-102580139D01*
X136830036Y-102583535D01*
X136808845Y-102591440D01*
X136794915Y-102588869D01*
X136783325Y-102590630D01*
X136768478Y-102583991D01*
X136747595Y-102580138D01*
X136694759Y-102555500D01*
X136656313Y-102550439D01*
X136592416Y-102522173D01*
X136553945Y-102463848D01*
X136549560Y-102443695D01*
X136544499Y-102405240D01*
X136519860Y-102352403D01*
X136517765Y-102338605D01*
X136511077Y-102326357D01*
X136512622Y-102304746D01*
X136509369Y-102283327D01*
X136515695Y-102261781D01*
X136516061Y-102256665D01*
X136517930Y-102254167D01*
X136519858Y-102247601D01*
X136544499Y-102194760D01*
X136550500Y-102149179D01*
X136550499Y-101950822D01*
X136550465Y-101950567D01*
X136544499Y-101905243D01*
X136544499Y-101905240D01*
X136519860Y-101852403D01*
X136509369Y-101783327D01*
X136519858Y-101747601D01*
X136544499Y-101694760D01*
X136550500Y-101649179D01*
X136550499Y-101450822D01*
X136544499Y-101405240D01*
X136519860Y-101352403D01*
X136509369Y-101283327D01*
X136519858Y-101247601D01*
X136544499Y-101194760D01*
X136550500Y-101149179D01*
X136550499Y-100950822D01*
X136550465Y-100950565D01*
X136544499Y-100905243D01*
X136544499Y-100905240D01*
X136519860Y-100852403D01*
X136509369Y-100783327D01*
X136519858Y-100747601D01*
X136544499Y-100694760D01*
X136550500Y-100649179D01*
X136550499Y-100450822D01*
X136550465Y-100450567D01*
X136547499Y-100428031D01*
X136544499Y-100405240D01*
X136519860Y-100352403D01*
X136509369Y-100283327D01*
X136519858Y-100247601D01*
X136544499Y-100194760D01*
X136550500Y-100149179D01*
X136550499Y-99950822D01*
X136544499Y-99905240D01*
X136519860Y-99852403D01*
X136509369Y-99783327D01*
X136519858Y-99747601D01*
X136544499Y-99694760D01*
X136550500Y-99649179D01*
X136550499Y-99450822D01*
X136550421Y-99450233D01*
X136544499Y-99405243D01*
X136544499Y-99405240D01*
X136519860Y-99352403D01*
X136509369Y-99283327D01*
X136519858Y-99247601D01*
X136544499Y-99194760D01*
X136550500Y-99149179D01*
X136550499Y-98950822D01*
X136544499Y-98905240D01*
X136519860Y-98852403D01*
X136509369Y-98783327D01*
X136519858Y-98747601D01*
X136544499Y-98694760D01*
X136550500Y-98649179D01*
X136550499Y-98450822D01*
X136544499Y-98405240D01*
X136519860Y-98352403D01*
X136509369Y-98283327D01*
X136519858Y-98247601D01*
X136544499Y-98194760D01*
X136550500Y-98149179D01*
X136550499Y-97950822D01*
X136544499Y-97905240D01*
X136519860Y-97852403D01*
X136509369Y-97783327D01*
X136519858Y-97747601D01*
X136544499Y-97694760D01*
X136550500Y-97649179D01*
X136550499Y-97450822D01*
X136544499Y-97405240D01*
X136519860Y-97352403D01*
X136516464Y-97330038D01*
X136508559Y-97308845D01*
X136511129Y-97294915D01*
X136509369Y-97283327D01*
X136516006Y-97268481D01*
X136519859Y-97247598D01*
X136544499Y-97194760D01*
X136549560Y-97156313D01*
X136577825Y-97092418D01*
X136636148Y-97053946D01*
X136656304Y-97049560D01*
X136694760Y-97044499D01*
X136747597Y-97019860D01*
X136761393Y-97017765D01*
X136773642Y-97011077D01*
X136795251Y-97012622D01*
X136816671Y-97009369D01*
X136838216Y-97015695D01*
X136843334Y-97016061D01*
X136845832Y-97017931D01*
X136852401Y-97019859D01*
X136905240Y-97044499D01*
X136950821Y-97050500D01*
X137149178Y-97050499D01*
X137149180Y-97050499D01*
X137164372Y-97048499D01*
X137194760Y-97044499D01*
X137247597Y-97019860D01*
X137316671Y-97009369D01*
X137352401Y-97019859D01*
X137405240Y-97044499D01*
X137450821Y-97050500D01*
X137649178Y-97050499D01*
X137649180Y-97050499D01*
X137664372Y-97048499D01*
X137694760Y-97044499D01*
X137747597Y-97019860D01*
X137816671Y-97009369D01*
X137852401Y-97019859D01*
X137905240Y-97044499D01*
X137950821Y-97050500D01*
X138149178Y-97050499D01*
X138149180Y-97050499D01*
X138164372Y-97048499D01*
X138194760Y-97044499D01*
X138247597Y-97019860D01*
X138316671Y-97009369D01*
X138352401Y-97019859D01*
X138405240Y-97044499D01*
X138450821Y-97050500D01*
X138649178Y-97050499D01*
X138649180Y-97050499D01*
X138664372Y-97048499D01*
X138694760Y-97044499D01*
X138747597Y-97019860D01*
X138816671Y-97009369D01*
X138852401Y-97019859D01*
X138905240Y-97044499D01*
X138950821Y-97050500D01*
X139149178Y-97050499D01*
X139149180Y-97050499D01*
X139164372Y-97048499D01*
X139194760Y-97044499D01*
X139247597Y-97019860D01*
X139316671Y-97009369D01*
X139352401Y-97019859D01*
X139405240Y-97044499D01*
X139450821Y-97050500D01*
X139649178Y-97050499D01*
X139649180Y-97050499D01*
X139664372Y-97048499D01*
X139694760Y-97044499D01*
X139747597Y-97019860D01*
X139816671Y-97009369D01*
X139852401Y-97019859D01*
X139905240Y-97044499D01*
X139950821Y-97050500D01*
X140149178Y-97050499D01*
X140149180Y-97050499D01*
X140164372Y-97048499D01*
X140194760Y-97044499D01*
X140247597Y-97019860D01*
X140316671Y-97009369D01*
X140352401Y-97019859D01*
X140405240Y-97044499D01*
X140450821Y-97050500D01*
X140649178Y-97050499D01*
X140649180Y-97050499D01*
X140664372Y-97048499D01*
X140694760Y-97044499D01*
X140747597Y-97019860D01*
X140816671Y-97009369D01*
X140852401Y-97019859D01*
X140905240Y-97044499D01*
X140950821Y-97050500D01*
X141149178Y-97050499D01*
X141149180Y-97050499D01*
X141164372Y-97048499D01*
X141194760Y-97044499D01*
X141247597Y-97019860D01*
X141316671Y-97009369D01*
X141352401Y-97019859D01*
X141405240Y-97044499D01*
X141450821Y-97050500D01*
X141649178Y-97050499D01*
X141649180Y-97050499D01*
X141664372Y-97048499D01*
X141694760Y-97044499D01*
X141747597Y-97019860D01*
X141769960Y-97016463D01*
X141791154Y-97008559D01*
X141803837Y-97011318D01*
G37*
%TD.AperFunction*%
%TA.AperFunction,Conductor*%
G36*
X179943039Y-68019685D02*
G01*
X179988794Y-68072489D01*
X180000000Y-68124000D01*
X180000000Y-129376000D01*
X179980315Y-129443039D01*
X179927511Y-129488794D01*
X179876000Y-129500000D01*
X59124000Y-129500000D01*
X59056961Y-129480315D01*
X59011206Y-129427511D01*
X59000000Y-129376000D01*
X59000000Y-83658753D01*
X62150000Y-83658753D01*
X62150000Y-83871246D01*
X62183242Y-84081127D01*
X62183242Y-84081130D01*
X62248904Y-84283217D01*
X62345375Y-84472550D01*
X62384728Y-84526716D01*
X63017037Y-83894408D01*
X63034075Y-83957993D01*
X63099901Y-84072007D01*
X63192993Y-84165099D01*
X63307007Y-84230925D01*
X63370590Y-84247962D01*
X62738282Y-84880269D01*
X62738282Y-84880270D01*
X62792449Y-84919624D01*
X62981782Y-85016095D01*
X63183870Y-85081757D01*
X63393754Y-85115000D01*
X63606246Y-85115000D01*
X63816127Y-85081757D01*
X63816130Y-85081757D01*
X64018217Y-85016095D01*
X64207554Y-84919622D01*
X64261716Y-84880270D01*
X64261717Y-84880270D01*
X63629408Y-84247962D01*
X63692993Y-84230925D01*
X63807007Y-84165099D01*
X63900099Y-84072007D01*
X63965925Y-83957993D01*
X63982962Y-83894409D01*
X64615270Y-84526717D01*
X64615270Y-84526716D01*
X64654622Y-84472554D01*
X64751095Y-84283217D01*
X64816757Y-84081130D01*
X64816757Y-84081127D01*
X64850000Y-83871246D01*
X64850000Y-83658753D01*
X64816757Y-83448872D01*
X64816757Y-83448869D01*
X64751095Y-83246782D01*
X64654624Y-83057449D01*
X64615270Y-83003282D01*
X64615269Y-83003282D01*
X63982962Y-83635590D01*
X63965925Y-83572007D01*
X63900099Y-83457993D01*
X63807007Y-83364901D01*
X63692993Y-83299075D01*
X63629409Y-83282037D01*
X64261716Y-82649728D01*
X64207550Y-82610375D01*
X64108655Y-82559985D01*
X64057859Y-82512010D01*
X64041064Y-82444189D01*
X64063602Y-82378054D01*
X64118317Y-82334603D01*
X64164950Y-82325500D01*
X64374676Y-82325500D01*
X64374677Y-82325499D01*
X64447740Y-82310966D01*
X64530601Y-82255601D01*
X64585966Y-82172740D01*
X64600500Y-82099674D01*
X64600500Y-81724500D01*
X64620185Y-81657461D01*
X64672989Y-81611706D01*
X64724500Y-81600500D01*
X69518101Y-81600500D01*
X69585140Y-81620185D01*
X69605782Y-81636819D01*
X73199525Y-85230562D01*
X73269438Y-85300475D01*
X73355059Y-85349908D01*
X73355062Y-85349910D01*
X73402811Y-85362705D01*
X73402812Y-85362705D01*
X73412903Y-85365408D01*
X73450564Y-85375500D01*
X73450565Y-85375500D01*
X73450566Y-85375500D01*
X73549435Y-85375500D01*
X73549436Y-85375500D01*
X73597186Y-85362705D01*
X73644938Y-85349910D01*
X73730562Y-85300475D01*
X73800475Y-85230562D01*
X73819219Y-85211818D01*
X73880543Y-85178334D01*
X73906900Y-85175500D01*
X90980965Y-85175500D01*
X91048004Y-85195185D01*
X91093759Y-85247989D01*
X91099957Y-85267706D01*
X91100523Y-85267542D01*
X91146380Y-85425385D01*
X91146382Y-85425390D01*
X91226827Y-85561416D01*
X91226834Y-85561425D01*
X91338574Y-85673165D01*
X91338578Y-85673168D01*
X91338580Y-85673170D01*
X91474610Y-85753618D01*
X91626373Y-85797709D01*
X91661837Y-85800500D01*
X93038162Y-85800499D01*
X93073627Y-85797709D01*
X93225390Y-85753618D01*
X93361420Y-85673170D01*
X93473170Y-85561420D01*
X93553618Y-85425390D01*
X93597709Y-85273627D01*
X93600500Y-85238163D01*
X93600499Y-84430897D01*
X93620183Y-84363859D01*
X93672987Y-84318104D01*
X93742146Y-84308160D01*
X93805702Y-84337185D01*
X93812180Y-84343217D01*
X98349525Y-88880562D01*
X98349526Y-88880563D01*
X119769438Y-110300475D01*
X119843589Y-110343286D01*
X119855059Y-110349909D01*
X119855063Y-110349911D01*
X119950564Y-110375500D01*
X119950565Y-110375500D01*
X119950566Y-110375500D01*
X137549435Y-110375500D01*
X137549436Y-110375500D01*
X137597186Y-110362705D01*
X137644938Y-110349910D01*
X137730562Y-110300475D01*
X137800475Y-110230562D01*
X139412319Y-108618718D01*
X139473642Y-108585233D01*
X139543334Y-108590217D01*
X139587681Y-108618718D01*
X140699525Y-109730562D01*
X140769438Y-109800475D01*
X140845628Y-109844463D01*
X140855062Y-109849910D01*
X140902811Y-109862705D01*
X140902812Y-109862705D01*
X140912903Y-109865408D01*
X140950564Y-109875500D01*
X140950565Y-109875500D01*
X141453217Y-109875500D01*
X141520256Y-109895185D01*
X141566011Y-109947989D01*
X141569389Y-109956142D01*
X141578372Y-109980226D01*
X141660313Y-110089687D01*
X141769774Y-110171628D01*
X141897886Y-110219412D01*
X141954515Y-110225500D01*
X142495484Y-110225499D01*
X142552114Y-110219412D01*
X142680226Y-110171628D01*
X142761804Y-110110559D01*
X142827264Y-110086143D01*
X142895538Y-110100994D01*
X142941650Y-110144730D01*
X142977424Y-110202728D01*
X142977427Y-110202732D01*
X143097267Y-110322572D01*
X143097271Y-110322575D01*
X143241507Y-110411542D01*
X143241518Y-110411547D01*
X143402393Y-110464855D01*
X143501683Y-110474999D01*
X144025000Y-110474999D01*
X144048308Y-110474999D01*
X144048322Y-110474998D01*
X144147607Y-110464855D01*
X144308481Y-110411547D01*
X144308492Y-110411542D01*
X144452728Y-110322575D01*
X144452732Y-110322572D01*
X144572572Y-110202732D01*
X144572575Y-110202728D01*
X144661542Y-110058492D01*
X144661547Y-110058481D01*
X144714855Y-109897606D01*
X144724999Y-109798322D01*
X144725000Y-109798309D01*
X144725000Y-109750000D01*
X144025000Y-109750000D01*
X144025000Y-110474999D01*
X143501683Y-110474999D01*
X143525000Y-110474998D01*
X143525000Y-109250000D01*
X144025000Y-109250000D01*
X144724999Y-109250000D01*
X144724999Y-109201692D01*
X144724998Y-109201677D01*
X144714855Y-109102392D01*
X144661547Y-108941518D01*
X144661542Y-108941507D01*
X144572575Y-108797271D01*
X144572572Y-108797267D01*
X144452732Y-108677427D01*
X144452728Y-108677424D01*
X144308492Y-108588457D01*
X144308481Y-108588452D01*
X144147606Y-108535144D01*
X144048322Y-108525000D01*
X144025000Y-108525000D01*
X144025000Y-109250000D01*
X143525000Y-109250000D01*
X143525000Y-108524999D01*
X143501693Y-108525000D01*
X143501674Y-108525001D01*
X143402392Y-108535144D01*
X143241518Y-108588452D01*
X143241507Y-108588457D01*
X143097271Y-108677424D01*
X143097267Y-108677427D01*
X142977424Y-108797270D01*
X142941649Y-108855270D01*
X142889701Y-108901993D01*
X142820738Y-108913214D01*
X142761802Y-108889438D01*
X142680230Y-108828374D01*
X142680227Y-108828373D01*
X142680226Y-108828372D01*
X142552114Y-108780588D01*
X142552112Y-108780587D01*
X142552110Y-108780587D01*
X142495493Y-108774500D01*
X141954518Y-108774500D01*
X141954509Y-108774501D01*
X141897885Y-108780587D01*
X141769773Y-108828372D01*
X141660313Y-108910313D01*
X141578373Y-109019771D01*
X141578372Y-109019774D01*
X141569397Y-109043836D01*
X141527527Y-109099767D01*
X141462063Y-109124184D01*
X141453217Y-109124500D01*
X141206899Y-109124500D01*
X141139860Y-109104815D01*
X141119218Y-109088181D01*
X140118718Y-108087681D01*
X140085233Y-108026358D01*
X140090217Y-107956666D01*
X140118718Y-107912319D01*
X140870451Y-107160586D01*
X141850475Y-106180563D01*
X141899911Y-106094937D01*
X141925500Y-105999436D01*
X141925500Y-105900564D01*
X141925500Y-104049499D01*
X141945185Y-103982460D01*
X141997989Y-103936705D01*
X142049497Y-103925499D01*
X142149178Y-103925499D01*
X142149180Y-103925499D01*
X142164372Y-103923499D01*
X142194760Y-103919499D01*
X142294799Y-103872850D01*
X142372850Y-103794799D01*
X142419499Y-103694760D01*
X142425500Y-103649179D01*
X142425499Y-103049498D01*
X142445183Y-102982460D01*
X142497987Y-102936705D01*
X142549499Y-102925499D01*
X143149180Y-102925499D01*
X143164372Y-102923499D01*
X143194760Y-102919499D01*
X143294799Y-102872850D01*
X143372850Y-102794799D01*
X143419499Y-102694760D01*
X143425500Y-102649179D01*
X143425499Y-102450822D01*
X143419499Y-102405240D01*
X143394860Y-102352403D01*
X143384369Y-102283327D01*
X143394858Y-102247601D01*
X143419499Y-102194760D01*
X143425500Y-102149179D01*
X143425499Y-101950822D01*
X143425465Y-101950567D01*
X143419499Y-101905243D01*
X143419499Y-101905240D01*
X143394860Y-101852403D01*
X143384369Y-101783327D01*
X143394858Y-101747601D01*
X143419499Y-101694760D01*
X143425500Y-101649179D01*
X143425499Y-101450822D01*
X143419499Y-101405240D01*
X143394860Y-101352403D01*
X143384369Y-101283327D01*
X143394858Y-101247601D01*
X143419499Y-101194760D01*
X143419978Y-101191124D01*
X143421681Y-101187272D01*
X143422155Y-101185649D01*
X143422371Y-101185712D01*
X143448244Y-101127227D01*
X143506568Y-101088755D01*
X143576432Y-101087923D01*
X143635656Y-101124995D01*
X143650302Y-101145305D01*
X143699525Y-101230562D01*
X143769438Y-101300475D01*
X143855062Y-101349910D01*
X143950565Y-101375500D01*
X150293101Y-101375500D01*
X150360140Y-101395185D01*
X150380782Y-101411819D01*
X156442677Y-107473714D01*
X156476162Y-107535037D01*
X156472927Y-107599713D01*
X156426597Y-107742301D01*
X156399669Y-107912319D01*
X156399500Y-107913389D01*
X156399500Y-108086611D01*
X156426598Y-108257701D01*
X156480127Y-108422445D01*
X156558768Y-108576788D01*
X156660586Y-108716928D01*
X156783072Y-108839414D01*
X156923212Y-108941232D01*
X157077555Y-109019873D01*
X157242299Y-109073402D01*
X157413389Y-109100500D01*
X157413390Y-109100500D01*
X157586610Y-109100500D01*
X157586611Y-109100500D01*
X157757701Y-109073402D01*
X157922445Y-109019873D01*
X158076788Y-108941232D01*
X158216928Y-108839414D01*
X158339414Y-108716928D01*
X158441232Y-108576788D01*
X158519873Y-108422445D01*
X158573402Y-108257701D01*
X158600500Y-108086611D01*
X158600500Y-107913389D01*
X158573402Y-107742299D01*
X158519873Y-107577555D01*
X158441232Y-107423212D01*
X158339414Y-107283072D01*
X158216928Y-107160586D01*
X158076788Y-107058768D01*
X158048756Y-107044485D01*
X157997960Y-106996510D01*
X157981165Y-106928689D01*
X158003703Y-106862554D01*
X158058418Y-106819103D01*
X158105051Y-106810000D01*
X158397828Y-106810000D01*
X158397844Y-106809999D01*
X158457372Y-106803598D01*
X158457379Y-106803596D01*
X158592086Y-106753354D01*
X158592093Y-106753350D01*
X158707187Y-106667190D01*
X158707190Y-106667187D01*
X158793350Y-106552093D01*
X158793354Y-106552086D01*
X158843596Y-106417379D01*
X158843598Y-106417372D01*
X158849999Y-106357844D01*
X158850000Y-106357827D01*
X158850000Y-105710000D01*
X157933012Y-105710000D01*
X157965925Y-105652993D01*
X158000000Y-105525826D01*
X158000000Y-105394174D01*
X157965925Y-105267007D01*
X157933012Y-105210000D01*
X158850000Y-105210000D01*
X158850000Y-104562172D01*
X158849999Y-104562155D01*
X158843598Y-104502627D01*
X158843596Y-104502620D01*
X158793354Y-104367913D01*
X158793350Y-104367906D01*
X158707190Y-104252812D01*
X158707187Y-104252809D01*
X158592093Y-104166649D01*
X158592086Y-104166645D01*
X158457379Y-104116403D01*
X158457372Y-104116401D01*
X158397844Y-104110000D01*
X157750000Y-104110000D01*
X157750000Y-105026988D01*
X157692993Y-104994075D01*
X157565826Y-104960000D01*
X157434174Y-104960000D01*
X157307007Y-104994075D01*
X157250000Y-105026988D01*
X157250000Y-104110000D01*
X156602155Y-104110000D01*
X156542627Y-104116401D01*
X156542620Y-104116403D01*
X156407913Y-104166645D01*
X156407906Y-104166649D01*
X156292812Y-104252809D01*
X156292809Y-104252812D01*
X156206649Y-104367906D01*
X156206645Y-104367913D01*
X156156403Y-104502620D01*
X156156401Y-104502627D01*
X156150000Y-104562155D01*
X156150000Y-105210000D01*
X157066988Y-105210000D01*
X157034075Y-105267007D01*
X157000000Y-105394174D01*
X157000000Y-105525826D01*
X157034075Y-105652993D01*
X157066988Y-105710000D01*
X156150000Y-105710000D01*
X156150000Y-105819601D01*
X156130315Y-105886640D01*
X156077511Y-105932395D01*
X156008353Y-105942339D01*
X155944797Y-105913314D01*
X155938319Y-105907282D01*
X151118218Y-101087181D01*
X151084733Y-101025858D01*
X151089717Y-100956166D01*
X151131589Y-100900233D01*
X151197053Y-100875816D01*
X151205899Y-100875500D01*
X160000500Y-100875500D01*
X160067539Y-100895185D01*
X160113294Y-100947989D01*
X160124500Y-100999500D01*
X160124500Y-109793101D01*
X160104815Y-109860140D01*
X160088181Y-109880782D01*
X159840782Y-110128181D01*
X159779459Y-110161666D01*
X159753101Y-110164500D01*
X158619780Y-110164500D01*
X158552741Y-110144815D01*
X158509295Y-110096794D01*
X158441233Y-109963213D01*
X158391807Y-109895185D01*
X158339414Y-109823072D01*
X158216928Y-109700586D01*
X158076788Y-109598768D01*
X157922445Y-109520127D01*
X157757701Y-109466598D01*
X157757699Y-109466597D01*
X157757698Y-109466597D01*
X157626271Y-109445781D01*
X157586611Y-109439500D01*
X157413389Y-109439500D01*
X157373728Y-109445781D01*
X157242302Y-109466597D01*
X157077552Y-109520128D01*
X156923211Y-109598768D01*
X156843256Y-109656859D01*
X156783072Y-109700586D01*
X156783070Y-109700588D01*
X156783069Y-109700588D01*
X156660588Y-109823069D01*
X156660588Y-109823070D01*
X156660586Y-109823072D01*
X156622495Y-109875500D01*
X156558768Y-109963211D01*
X156480128Y-110117552D01*
X156426597Y-110282302D01*
X156399500Y-110453389D01*
X156399500Y-110626610D01*
X156422299Y-110770562D01*
X156426598Y-110797701D01*
X156480127Y-110962445D01*
X156558768Y-111116788D01*
X156660586Y-111256928D01*
X156783072Y-111379414D01*
X156923212Y-111481232D01*
X157077555Y-111559873D01*
X157242299Y-111613402D01*
X157413389Y-111640500D01*
X157413390Y-111640500D01*
X157586610Y-111640500D01*
X157586611Y-111640500D01*
X157757701Y-111613402D01*
X157922445Y-111559873D01*
X158076788Y-111481232D01*
X158216928Y-111379414D01*
X158339414Y-111256928D01*
X158441232Y-111116788D01*
X158509295Y-110983206D01*
X158557269Y-110932409D01*
X158619780Y-110915500D01*
X160009435Y-110915500D01*
X160009436Y-110915500D01*
X160057186Y-110902705D01*
X160104938Y-110889910D01*
X160190562Y-110840475D01*
X160260475Y-110770562D01*
X160800474Y-110230563D01*
X160800475Y-110230562D01*
X160849910Y-110144938D01*
X160862705Y-110097186D01*
X160875500Y-110049436D01*
X160875500Y-109950564D01*
X160875500Y-100450565D01*
X160849910Y-100355062D01*
X160800475Y-100269438D01*
X160730562Y-100199525D01*
X160644938Y-100150090D01*
X160549435Y-100124500D01*
X160549433Y-100124500D01*
X146206899Y-100124500D01*
X146139860Y-100104815D01*
X146119218Y-100088181D01*
X144807545Y-98776508D01*
X144807543Y-98776505D01*
X144730564Y-98699526D01*
X144730559Y-98699522D01*
X144644939Y-98650090D01*
X144644938Y-98650089D01*
X144644937Y-98650089D01*
X144549436Y-98624500D01*
X144450564Y-98624500D01*
X144355063Y-98650089D01*
X144355062Y-98650089D01*
X144341555Y-98657888D01*
X144279556Y-98674500D01*
X143549500Y-98674500D01*
X143482461Y-98654815D01*
X143436706Y-98602011D01*
X143425500Y-98550501D01*
X143425499Y-98450819D01*
X143420329Y-98411547D01*
X143419499Y-98405240D01*
X143394860Y-98352403D01*
X143384369Y-98283327D01*
X143394858Y-98247601D01*
X143419499Y-98194760D01*
X143425500Y-98149179D01*
X143425499Y-97999500D01*
X143445183Y-97932461D01*
X143497987Y-97886706D01*
X143549499Y-97875500D01*
X145049432Y-97875500D01*
X145049435Y-97875500D01*
X145144938Y-97849910D01*
X145187998Y-97825048D01*
X145255898Y-97808575D01*
X145311998Y-97825047D01*
X145355063Y-97849911D01*
X145450564Y-97875500D01*
X145450565Y-97875500D01*
X148453217Y-97875500D01*
X148520256Y-97895185D01*
X148566011Y-97947989D01*
X148569389Y-97956142D01*
X148578372Y-97980226D01*
X148660313Y-98089687D01*
X148769774Y-98171628D01*
X148897886Y-98219412D01*
X148954515Y-98225500D01*
X149495484Y-98225499D01*
X149552114Y-98219412D01*
X149680226Y-98171628D01*
X149761804Y-98110559D01*
X149827264Y-98086143D01*
X149895538Y-98100994D01*
X149941650Y-98144730D01*
X149977424Y-98202728D01*
X149977427Y-98202732D01*
X150097267Y-98322572D01*
X150097271Y-98322575D01*
X150241507Y-98411542D01*
X150241518Y-98411547D01*
X150402393Y-98464855D01*
X150501683Y-98474999D01*
X151025000Y-98474999D01*
X151048308Y-98474999D01*
X151048322Y-98474998D01*
X151147607Y-98464855D01*
X151308481Y-98411547D01*
X151308492Y-98411542D01*
X151452728Y-98322575D01*
X151452732Y-98322572D01*
X151572572Y-98202732D01*
X151572575Y-98202728D01*
X151661542Y-98058492D01*
X151661547Y-98058481D01*
X151714855Y-97897606D01*
X151724999Y-97798322D01*
X151725000Y-97798309D01*
X151725000Y-97750000D01*
X151025000Y-97750000D01*
X151025000Y-98474999D01*
X150501683Y-98474999D01*
X150525000Y-98474998D01*
X150525000Y-97250000D01*
X151025000Y-97250000D01*
X151724999Y-97250000D01*
X151724999Y-97201692D01*
X151724998Y-97201677D01*
X151714855Y-97102392D01*
X151661547Y-96941518D01*
X151661542Y-96941507D01*
X151572575Y-96797271D01*
X151572572Y-96797267D01*
X151452732Y-96677427D01*
X151452728Y-96677424D01*
X151308492Y-96588457D01*
X151308481Y-96588452D01*
X151147606Y-96535144D01*
X151048322Y-96525000D01*
X151025000Y-96525000D01*
X151025000Y-97250000D01*
X150525000Y-97250000D01*
X150525000Y-96524999D01*
X150501693Y-96525000D01*
X150501674Y-96525001D01*
X150402392Y-96535144D01*
X150241518Y-96588452D01*
X150241507Y-96588457D01*
X150097271Y-96677424D01*
X150097267Y-96677427D01*
X149977424Y-96797270D01*
X149941649Y-96855270D01*
X149889701Y-96901993D01*
X149820738Y-96913214D01*
X149761802Y-96889438D01*
X149680230Y-96828374D01*
X149680227Y-96828373D01*
X149680226Y-96828372D01*
X149552114Y-96780588D01*
X149552112Y-96780587D01*
X149552110Y-96780587D01*
X149495493Y-96774500D01*
X148954518Y-96774500D01*
X148954509Y-96774501D01*
X148897885Y-96780587D01*
X148769773Y-96828372D01*
X148660313Y-96910313D01*
X148578373Y-97019771D01*
X148577389Y-97022406D01*
X148569397Y-97043836D01*
X148527527Y-97099767D01*
X148462063Y-97124184D01*
X148453217Y-97124500D01*
X145706900Y-97124500D01*
X145639861Y-97104815D01*
X145619219Y-97088181D01*
X145411819Y-96880781D01*
X145378334Y-96819458D01*
X145375500Y-96793100D01*
X145375500Y-93450567D01*
X145375500Y-93450565D01*
X145349910Y-93355062D01*
X145300475Y-93269438D01*
X145230562Y-93199525D01*
X145144938Y-93150090D01*
X145049435Y-93124500D01*
X145049433Y-93124500D01*
X137706899Y-93124500D01*
X137639860Y-93104815D01*
X137619218Y-93088181D01*
X137136819Y-92605782D01*
X137103334Y-92544459D01*
X137100500Y-92518101D01*
X137100500Y-88787459D01*
X137120185Y-88720420D01*
X137172989Y-88674665D01*
X137179928Y-88671790D01*
X137180221Y-88671630D01*
X137180221Y-88671629D01*
X137180226Y-88671628D01*
X137261806Y-88610557D01*
X137327265Y-88586143D01*
X137395538Y-88600994D01*
X137441650Y-88644730D01*
X137477424Y-88702728D01*
X137477427Y-88702732D01*
X137597267Y-88822572D01*
X137597271Y-88822575D01*
X137741507Y-88911542D01*
X137741518Y-88911547D01*
X137902393Y-88964855D01*
X138001683Y-88974999D01*
X138525000Y-88974999D01*
X138548308Y-88974999D01*
X138548322Y-88974998D01*
X138647607Y-88964855D01*
X138808481Y-88911547D01*
X138808492Y-88911542D01*
X138952728Y-88822575D01*
X138952732Y-88822572D01*
X139072572Y-88702732D01*
X139072575Y-88702728D01*
X139161542Y-88558492D01*
X139161547Y-88558481D01*
X139214855Y-88397606D01*
X139224999Y-88298322D01*
X139225000Y-88298309D01*
X139225000Y-88250000D01*
X138525000Y-88250000D01*
X138525000Y-88974999D01*
X138001683Y-88974999D01*
X138025000Y-88974998D01*
X138025000Y-87750000D01*
X138525000Y-87750000D01*
X139224999Y-87750000D01*
X139224999Y-87701692D01*
X139224998Y-87701677D01*
X139214855Y-87602392D01*
X139161547Y-87441518D01*
X139161542Y-87441507D01*
X139072575Y-87297271D01*
X139072572Y-87297267D01*
X138952732Y-87177427D01*
X138952728Y-87177424D01*
X138808492Y-87088457D01*
X138808481Y-87088452D01*
X138647606Y-87035144D01*
X138548322Y-87025000D01*
X138525000Y-87025000D01*
X138525000Y-87750000D01*
X138025000Y-87750000D01*
X138025000Y-87024999D01*
X138001693Y-87025000D01*
X138001674Y-87025001D01*
X137902392Y-87035144D01*
X137741518Y-87088452D01*
X137741507Y-87088457D01*
X137597271Y-87177424D01*
X137597267Y-87177427D01*
X137477424Y-87297270D01*
X137441649Y-87355270D01*
X137389701Y-87401993D01*
X137320738Y-87413214D01*
X137261802Y-87389438D01*
X137180230Y-87328374D01*
X137180227Y-87328373D01*
X137180226Y-87328372D01*
X137052114Y-87280588D01*
X137052112Y-87280587D01*
X137052110Y-87280587D01*
X136995493Y-87274500D01*
X136454518Y-87274500D01*
X136454509Y-87274501D01*
X136397885Y-87280587D01*
X136269773Y-87328372D01*
X136160313Y-87410313D01*
X136078373Y-87519771D01*
X136030587Y-87647889D01*
X136024500Y-87704498D01*
X136024500Y-88295481D01*
X136024501Y-88295490D01*
X136030587Y-88352114D01*
X136078372Y-88480226D01*
X136160314Y-88589688D01*
X136269774Y-88671628D01*
X136277562Y-88675881D01*
X136276813Y-88677252D01*
X136324763Y-88713143D01*
X136349184Y-88778606D01*
X136349500Y-88787459D01*
X136349500Y-92774435D01*
X136375090Y-92869938D01*
X136414675Y-92938502D01*
X136431148Y-93006399D01*
X136408296Y-93072426D01*
X136353375Y-93115617D01*
X136307288Y-93124500D01*
X133549435Y-93124500D01*
X132049435Y-93124500D01*
X121549435Y-93124500D01*
X121450565Y-93124500D01*
X121355062Y-93150090D01*
X121355060Y-93150091D01*
X121355059Y-93150091D01*
X121269436Y-93199526D01*
X121199526Y-93269436D01*
X121150091Y-93355059D01*
X121150091Y-93355060D01*
X121150090Y-93355062D01*
X121124500Y-93450565D01*
X121124500Y-105049435D01*
X121150090Y-105144938D01*
X121150091Y-105144939D01*
X121150091Y-105144940D01*
X121161616Y-105164901D01*
X121193102Y-105219437D01*
X121199526Y-105230563D01*
X121199528Y-105230566D01*
X121494788Y-105525826D01*
X121769437Y-105800475D01*
X121855063Y-105849911D01*
X121950564Y-105875500D01*
X121950565Y-105875500D01*
X139950564Y-105875500D01*
X139950565Y-105875500D01*
X140450564Y-105875500D01*
X140450565Y-105875500D01*
X140794099Y-105875500D01*
X140861138Y-105895185D01*
X140906893Y-105947989D01*
X140916837Y-106017147D01*
X140887812Y-106080703D01*
X140881780Y-106087181D01*
X139269437Y-107699526D01*
X137380782Y-109588181D01*
X137319459Y-109621666D01*
X137293101Y-109624500D01*
X120206899Y-109624500D01*
X120139860Y-109604815D01*
X120119218Y-109588181D01*
X99061819Y-88530782D01*
X99028334Y-88469459D01*
X99025500Y-88443101D01*
X99025500Y-84774499D01*
X99045185Y-84707460D01*
X99097989Y-84661705D01*
X99149500Y-84650499D01*
X99200002Y-84650499D01*
X99200008Y-84650499D01*
X99302797Y-84639999D01*
X99469334Y-84584814D01*
X99618656Y-84492712D01*
X99742712Y-84368656D01*
X99834814Y-84219334D01*
X99889999Y-84052797D01*
X99900500Y-83950009D01*
X99900500Y-82999500D01*
X99920185Y-82932461D01*
X99972989Y-82886706D01*
X100024500Y-82875500D01*
X112175500Y-82875500D01*
X112242539Y-82895185D01*
X112288294Y-82947989D01*
X112299500Y-82999500D01*
X112299500Y-83522870D01*
X112299501Y-83522876D01*
X112305908Y-83582483D01*
X112356202Y-83717328D01*
X112356206Y-83717335D01*
X112442452Y-83832544D01*
X112442455Y-83832547D01*
X112557664Y-83918793D01*
X112557671Y-83918797D01*
X112579201Y-83926827D01*
X112692517Y-83969091D01*
X112752127Y-83975500D01*
X113347872Y-83975499D01*
X113407483Y-83969091D01*
X113542331Y-83918796D01*
X113657546Y-83832546D01*
X113743796Y-83717331D01*
X113751180Y-83697532D01*
X113793050Y-83641598D01*
X113858514Y-83617179D01*
X113926787Y-83632029D01*
X113976194Y-83681433D01*
X113985069Y-83701859D01*
X114015641Y-83794119D01*
X114015643Y-83794124D01*
X114107684Y-83943345D01*
X114231654Y-84067315D01*
X114380875Y-84159356D01*
X114380880Y-84159358D01*
X114547302Y-84214505D01*
X114547309Y-84214506D01*
X114650019Y-84224999D01*
X115200000Y-84224999D01*
X115249972Y-84224999D01*
X115249986Y-84224998D01*
X115352697Y-84214505D01*
X115519119Y-84159358D01*
X115519124Y-84159356D01*
X115668345Y-84067315D01*
X115792315Y-83943345D01*
X115884356Y-83794124D01*
X115884358Y-83794119D01*
X115939505Y-83627697D01*
X115939506Y-83627690D01*
X115949999Y-83524986D01*
X115950000Y-83524973D01*
X115950000Y-83250000D01*
X115200000Y-83250000D01*
X115200000Y-84224999D01*
X114650019Y-84224999D01*
X114699999Y-84224998D01*
X114700000Y-84224998D01*
X114700000Y-82750000D01*
X115200000Y-82750000D01*
X115949999Y-82750000D01*
X115949999Y-82475028D01*
X115949998Y-82475013D01*
X115939505Y-82372302D01*
X115884358Y-82205880D01*
X115884356Y-82205875D01*
X115792315Y-82056654D01*
X115668345Y-81932684D01*
X115519124Y-81840643D01*
X115519119Y-81840641D01*
X115352697Y-81785494D01*
X115352690Y-81785493D01*
X115249986Y-81775000D01*
X115200000Y-81775000D01*
X115200000Y-82750000D01*
X114700000Y-82750000D01*
X114700000Y-81775000D01*
X114699999Y-81774999D01*
X114650029Y-81775000D01*
X114650011Y-81775001D01*
X114547302Y-81785494D01*
X114380880Y-81840641D01*
X114380875Y-81840643D01*
X114231654Y-81932684D01*
X114107684Y-82056654D01*
X114015643Y-82205875D01*
X114015642Y-82205878D01*
X113985069Y-82298141D01*
X113945296Y-82355585D01*
X113880780Y-82382408D01*
X113812004Y-82370093D01*
X113760804Y-82322549D01*
X113751181Y-82302468D01*
X113743798Y-82282673D01*
X113743793Y-82282664D01*
X113657547Y-82167455D01*
X113657544Y-82167452D01*
X113542335Y-82081206D01*
X113542328Y-82081202D01*
X113407486Y-82030910D01*
X113407485Y-82030909D01*
X113407483Y-82030909D01*
X113347873Y-82024500D01*
X113347863Y-82024500D01*
X112752129Y-82024500D01*
X112752123Y-82024501D01*
X112692516Y-82030908D01*
X112557671Y-82081202D01*
X112557668Y-82081204D01*
X112532872Y-82099767D01*
X112467408Y-82124184D01*
X112458561Y-82124500D01*
X100024499Y-82124500D01*
X99957460Y-82104815D01*
X99911705Y-82052011D01*
X99900499Y-82000500D01*
X99900499Y-81049998D01*
X99900498Y-81049981D01*
X99889999Y-80947203D01*
X99889998Y-80947200D01*
X99834814Y-80780666D01*
X99742712Y-80631344D01*
X99618656Y-80507288D01*
X99469334Y-80415186D01*
X99302797Y-80360001D01*
X99302795Y-80360000D01*
X99200010Y-80349500D01*
X98099998Y-80349500D01*
X98099980Y-80349501D01*
X97997203Y-80360000D01*
X97997200Y-80360001D01*
X97830668Y-80415185D01*
X97830663Y-80415187D01*
X97681342Y-80507289D01*
X97557289Y-80631342D01*
X97465187Y-80780663D01*
X97465185Y-80780668D01*
X97442377Y-80849500D01*
X97410001Y-80947203D01*
X97410001Y-80947204D01*
X97410000Y-80947204D01*
X97399500Y-81049983D01*
X97399500Y-83950001D01*
X97399501Y-83950018D01*
X97410000Y-84052796D01*
X97410001Y-84052799D01*
X97465185Y-84219331D01*
X97465187Y-84219336D01*
X97468680Y-84224999D01*
X97557288Y-84368656D01*
X97681344Y-84492712D01*
X97830666Y-84584814D01*
X97997203Y-84639999D01*
X98099991Y-84650500D01*
X98150500Y-84650499D01*
X98217538Y-84670182D01*
X98263293Y-84722985D01*
X98274500Y-84774499D01*
X98274500Y-87444101D01*
X98254815Y-87511140D01*
X98202011Y-87556895D01*
X98132853Y-87566839D01*
X98069297Y-87537814D01*
X98062819Y-87531782D01*
X93628617Y-83097580D01*
X93595132Y-83036257D01*
X93597062Y-82979946D01*
X93596571Y-82979857D01*
X93597180Y-82976522D01*
X93597221Y-82975303D01*
X93597709Y-82973627D01*
X93600500Y-82938163D01*
X93600499Y-82061838D01*
X93597709Y-82026373D01*
X93553618Y-81874610D01*
X93473170Y-81738580D01*
X93473168Y-81738578D01*
X93473165Y-81738574D01*
X93361425Y-81626834D01*
X93361417Y-81626828D01*
X93312737Y-81598039D01*
X93265054Y-81546970D01*
X93252550Y-81478229D01*
X93279195Y-81413639D01*
X93320764Y-81380219D01*
X93449022Y-81316609D01*
X93449025Y-81316607D01*
X93597366Y-81197367D01*
X93597367Y-81197366D01*
X93716607Y-81049025D01*
X93716609Y-81049022D01*
X93801168Y-80878523D01*
X93847102Y-80693824D01*
X93850000Y-80651096D01*
X93850000Y-80450000D01*
X90850000Y-80450000D01*
X90850000Y-80651096D01*
X90852897Y-80693824D01*
X90898831Y-80878523D01*
X90983390Y-81049022D01*
X90983392Y-81049025D01*
X91102632Y-81197366D01*
X91102633Y-81197367D01*
X91250974Y-81316607D01*
X91250973Y-81316607D01*
X91379236Y-81380219D01*
X91430548Y-81427640D01*
X91448077Y-81495275D01*
X91426258Y-81561650D01*
X91387263Y-81598039D01*
X91338580Y-81626830D01*
X91338574Y-81626834D01*
X91226834Y-81738574D01*
X91226827Y-81738583D01*
X91146382Y-81874609D01*
X91146380Y-81874614D01*
X91102292Y-82026366D01*
X91102290Y-82026379D01*
X91099500Y-82061829D01*
X91099500Y-82938150D01*
X91099501Y-82938175D01*
X91102291Y-82973627D01*
X91146380Y-83125385D01*
X91146382Y-83125390D01*
X91226827Y-83261416D01*
X91226834Y-83261425D01*
X91338574Y-83373165D01*
X91338578Y-83373168D01*
X91338580Y-83373170D01*
X91474610Y-83453618D01*
X91626373Y-83497709D01*
X91661837Y-83500500D01*
X92918100Y-83500499D01*
X92985139Y-83520184D01*
X93005781Y-83536818D01*
X93056782Y-83587819D01*
X93090267Y-83649142D01*
X93085283Y-83718834D01*
X93043411Y-83774767D01*
X92977947Y-83799184D01*
X92969101Y-83799500D01*
X91661849Y-83799500D01*
X91661824Y-83799501D01*
X91626372Y-83802291D01*
X91474614Y-83846380D01*
X91474609Y-83846382D01*
X91338583Y-83926827D01*
X91338574Y-83926834D01*
X91226834Y-84038574D01*
X91226827Y-84038583D01*
X91146382Y-84174609D01*
X91146380Y-84174614D01*
X91100523Y-84332458D01*
X91098391Y-84331838D01*
X91071526Y-84385203D01*
X91011356Y-84420718D01*
X90980965Y-84424500D01*
X74455899Y-84424500D01*
X74388860Y-84404815D01*
X74343105Y-84352011D01*
X74333161Y-84282853D01*
X74362186Y-84219297D01*
X74368218Y-84212819D01*
X75044219Y-83536818D01*
X77078448Y-81502587D01*
X77139769Y-81469104D01*
X77184670Y-81469503D01*
X77184804Y-81468261D01*
X77192513Y-81469089D01*
X77192517Y-81469091D01*
X77252127Y-81475500D01*
X77847872Y-81475499D01*
X77907483Y-81469091D01*
X78042331Y-81418796D01*
X78157546Y-81332546D01*
X78243796Y-81217331D01*
X78251180Y-81197532D01*
X78293050Y-81141598D01*
X78358514Y-81117179D01*
X78426787Y-81132029D01*
X78476194Y-81181433D01*
X78485069Y-81201859D01*
X78515641Y-81294119D01*
X78515643Y-81294124D01*
X78607684Y-81443345D01*
X78731654Y-81567315D01*
X78880875Y-81659356D01*
X78880880Y-81659358D01*
X79047302Y-81714505D01*
X79047309Y-81714506D01*
X79150019Y-81724999D01*
X79700000Y-81724999D01*
X79749972Y-81724999D01*
X79749986Y-81724998D01*
X79852697Y-81714505D01*
X80019119Y-81659358D01*
X80019124Y-81659356D01*
X80168345Y-81567315D01*
X80292315Y-81443345D01*
X80384356Y-81294124D01*
X80384358Y-81294119D01*
X80439505Y-81127697D01*
X80439506Y-81127690D01*
X80449999Y-81024986D01*
X80450000Y-81024973D01*
X80450000Y-80750000D01*
X79700000Y-80750000D01*
X79700000Y-81724999D01*
X79150019Y-81724999D01*
X79199999Y-81724998D01*
X79200000Y-81724998D01*
X79200000Y-80250000D01*
X79700000Y-80250000D01*
X80449999Y-80250000D01*
X80449999Y-79975028D01*
X80449998Y-79975013D01*
X80439505Y-79872302D01*
X80410844Y-79785807D01*
X80398615Y-79748903D01*
X90850000Y-79748903D01*
X90850000Y-79950000D01*
X92100000Y-79950000D01*
X92600000Y-79950000D01*
X93850000Y-79950000D01*
X93850000Y-79748903D01*
X93847102Y-79706175D01*
X93801168Y-79521476D01*
X93716609Y-79350977D01*
X93716607Y-79350974D01*
X93597367Y-79202633D01*
X93597366Y-79202632D01*
X93449025Y-79083392D01*
X93449022Y-79083390D01*
X93278523Y-78998831D01*
X93093824Y-78952897D01*
X93051097Y-78950000D01*
X92600000Y-78950000D01*
X92600000Y-79950000D01*
X92100000Y-79950000D01*
X92100000Y-78950000D01*
X91648903Y-78950000D01*
X91606175Y-78952897D01*
X91421476Y-78998831D01*
X91250977Y-79083390D01*
X91250974Y-79083392D01*
X91102633Y-79202632D01*
X91102632Y-79202633D01*
X90983392Y-79350974D01*
X90983390Y-79350977D01*
X90898831Y-79521476D01*
X90852897Y-79706175D01*
X90850000Y-79748903D01*
X80398615Y-79748903D01*
X80384357Y-79705878D01*
X80384356Y-79705875D01*
X80292315Y-79556654D01*
X80168345Y-79432684D01*
X80019124Y-79340643D01*
X80019119Y-79340641D01*
X79852697Y-79285494D01*
X79852690Y-79285493D01*
X79749986Y-79275000D01*
X79700000Y-79275000D01*
X79700000Y-80250000D01*
X79200000Y-80250000D01*
X79200000Y-79275000D01*
X79199999Y-79274999D01*
X79150029Y-79275000D01*
X79150011Y-79275001D01*
X79047302Y-79285494D01*
X78880880Y-79340641D01*
X78880875Y-79340643D01*
X78731654Y-79432684D01*
X78607684Y-79556654D01*
X78515643Y-79705875D01*
X78515642Y-79705878D01*
X78485069Y-79798141D01*
X78445296Y-79855585D01*
X78380780Y-79882408D01*
X78312004Y-79870093D01*
X78260804Y-79822549D01*
X78251181Y-79802468D01*
X78243798Y-79782673D01*
X78243793Y-79782664D01*
X78157547Y-79667455D01*
X78157544Y-79667452D01*
X78042335Y-79581206D01*
X78042328Y-79581202D01*
X77907486Y-79530910D01*
X77907485Y-79530909D01*
X77907483Y-79530909D01*
X77847873Y-79524500D01*
X77847863Y-79524500D01*
X77252129Y-79524500D01*
X77252123Y-79524501D01*
X77192516Y-79530908D01*
X77057671Y-79581202D01*
X77057664Y-79581206D01*
X76942455Y-79667452D01*
X76942452Y-79667455D01*
X76856206Y-79782664D01*
X76856202Y-79782671D01*
X76805908Y-79917517D01*
X76799501Y-79977116D01*
X76799500Y-79977135D01*
X76799500Y-80668100D01*
X76779815Y-80735139D01*
X76763181Y-80755781D01*
X73362680Y-84156281D01*
X73301357Y-84189766D01*
X73231665Y-84184782D01*
X73187318Y-84156281D01*
X69955563Y-80924526D01*
X69955562Y-80924525D01*
X69869938Y-80875090D01*
X69822186Y-80862295D01*
X69822184Y-80862294D01*
X69822182Y-80862293D01*
X69774436Y-80849500D01*
X69774435Y-80849500D01*
X64724500Y-80849500D01*
X64657461Y-80829815D01*
X64611706Y-80777011D01*
X64600500Y-80725500D01*
X64600500Y-80350323D01*
X64600499Y-80350321D01*
X64585967Y-80277264D01*
X64585966Y-80277260D01*
X64530601Y-80194399D01*
X64447740Y-80139034D01*
X64447739Y-80139033D01*
X64447735Y-80139032D01*
X64374677Y-80124500D01*
X64374674Y-80124500D01*
X62625326Y-80124500D01*
X62625323Y-80124500D01*
X62552264Y-80139032D01*
X62552260Y-80139033D01*
X62469399Y-80194399D01*
X62414033Y-80277260D01*
X62414032Y-80277264D01*
X62399500Y-80350321D01*
X62399500Y-82099678D01*
X62414032Y-82172735D01*
X62414033Y-82172739D01*
X62414034Y-82172740D01*
X62469399Y-82255601D01*
X62533066Y-82298141D01*
X62552260Y-82310966D01*
X62552264Y-82310967D01*
X62625321Y-82325499D01*
X62625324Y-82325500D01*
X62835051Y-82325500D01*
X62902090Y-82345185D01*
X62947845Y-82397989D01*
X62957789Y-82467147D01*
X62928764Y-82530703D01*
X62891346Y-82559985D01*
X62792439Y-82610380D01*
X62738282Y-82649727D01*
X62738282Y-82649728D01*
X63370591Y-83282037D01*
X63307007Y-83299075D01*
X63192993Y-83364901D01*
X63099901Y-83457993D01*
X63034075Y-83572007D01*
X63017037Y-83635591D01*
X62384728Y-83003282D01*
X62384727Y-83003282D01*
X62345380Y-83057439D01*
X62248904Y-83246782D01*
X62183242Y-83448869D01*
X62183242Y-83448872D01*
X62150000Y-83658753D01*
X59000000Y-83658753D01*
X59000000Y-68124000D01*
X59019685Y-68056961D01*
X59072489Y-68011206D01*
X59124000Y-68000000D01*
X179876000Y-68000000D01*
X179943039Y-68019685D01*
G37*
%TD.AperFunction*%
%TD*%
M02*
