%TF.GenerationSoftware,KiCad,Pcbnew,10.0.5*%
%TF.CreationDate,2026-08-22T04:15:36-04:00*%
%TF.ProjectId,Virtual_Temperature_Monitoring_PCB,56697274-7561-46c5-9f54-656d70657261,rev?*%
%TF.SameCoordinates,Original*%
%TF.FileFunction,Legend,Top*%
%TF.FilePolarity,Positive*%
%FSLAX46Y46*%
G04 Gerber Fmt 4.6, Leading zero omitted, Abs format (unit mm)*
G04 Created by KiCad (PCBNEW 10.0.5) date 2026-08-22 04:15:36*
%MOMM*%
%LPD*%
G01*
G04 APERTURE LIST*
%ADD10C,0.150000*%
%ADD11C,0.120000*%
G04 APERTURE END LIST*
D10*
X157166666Y-102534819D02*
X157166666Y-103249104D01*
X157166666Y-103249104D02*
X157119047Y-103391961D01*
X157119047Y-103391961D02*
X157023809Y-103487200D01*
X157023809Y-103487200D02*
X156880952Y-103534819D01*
X156880952Y-103534819D02*
X156785714Y-103534819D01*
X158166666Y-103534819D02*
X157595238Y-103534819D01*
X157880952Y-103534819D02*
X157880952Y-102534819D01*
X157880952Y-102534819D02*
X157785714Y-102677676D01*
X157785714Y-102677676D02*
X157690476Y-102772914D01*
X157690476Y-102772914D02*
X157595238Y-102820533D01*
X78333333Y-79179580D02*
X78285714Y-79227200D01*
X78285714Y-79227200D02*
X78142857Y-79274819D01*
X78142857Y-79274819D02*
X78047619Y-79274819D01*
X78047619Y-79274819D02*
X77904762Y-79227200D01*
X77904762Y-79227200D02*
X77809524Y-79131961D01*
X77809524Y-79131961D02*
X77761905Y-79036723D01*
X77761905Y-79036723D02*
X77714286Y-78846247D01*
X77714286Y-78846247D02*
X77714286Y-78703390D01*
X77714286Y-78703390D02*
X77761905Y-78512914D01*
X77761905Y-78512914D02*
X77809524Y-78417676D01*
X77809524Y-78417676D02*
X77904762Y-78322438D01*
X77904762Y-78322438D02*
X78047619Y-78274819D01*
X78047619Y-78274819D02*
X78142857Y-78274819D01*
X78142857Y-78274819D02*
X78285714Y-78322438D01*
X78285714Y-78322438D02*
X78333333Y-78370057D01*
X78714286Y-78370057D02*
X78761905Y-78322438D01*
X78761905Y-78322438D02*
X78857143Y-78274819D01*
X78857143Y-78274819D02*
X79095238Y-78274819D01*
X79095238Y-78274819D02*
X79190476Y-78322438D01*
X79190476Y-78322438D02*
X79238095Y-78370057D01*
X79238095Y-78370057D02*
X79285714Y-78465295D01*
X79285714Y-78465295D02*
X79285714Y-78560533D01*
X79285714Y-78560533D02*
X79238095Y-78703390D01*
X79238095Y-78703390D02*
X78666667Y-79274819D01*
X78666667Y-79274819D02*
X79285714Y-79274819D01*
X137333333Y-86929580D02*
X137285714Y-86977200D01*
X137285714Y-86977200D02*
X137142857Y-87024819D01*
X137142857Y-87024819D02*
X137047619Y-87024819D01*
X137047619Y-87024819D02*
X136904762Y-86977200D01*
X136904762Y-86977200D02*
X136809524Y-86881961D01*
X136809524Y-86881961D02*
X136761905Y-86786723D01*
X136761905Y-86786723D02*
X136714286Y-86596247D01*
X136714286Y-86596247D02*
X136714286Y-86453390D01*
X136714286Y-86453390D02*
X136761905Y-86262914D01*
X136761905Y-86262914D02*
X136809524Y-86167676D01*
X136809524Y-86167676D02*
X136904762Y-86072438D01*
X136904762Y-86072438D02*
X137047619Y-86024819D01*
X137047619Y-86024819D02*
X137142857Y-86024819D01*
X137142857Y-86024819D02*
X137285714Y-86072438D01*
X137285714Y-86072438D02*
X137333333Y-86120057D01*
X138190476Y-86024819D02*
X138000000Y-86024819D01*
X138000000Y-86024819D02*
X137904762Y-86072438D01*
X137904762Y-86072438D02*
X137857143Y-86120057D01*
X137857143Y-86120057D02*
X137761905Y-86262914D01*
X137761905Y-86262914D02*
X137714286Y-86453390D01*
X137714286Y-86453390D02*
X137714286Y-86834342D01*
X137714286Y-86834342D02*
X137761905Y-86929580D01*
X137761905Y-86929580D02*
X137809524Y-86977200D01*
X137809524Y-86977200D02*
X137904762Y-87024819D01*
X137904762Y-87024819D02*
X138095238Y-87024819D01*
X138095238Y-87024819D02*
X138190476Y-86977200D01*
X138190476Y-86977200D02*
X138238095Y-86929580D01*
X138238095Y-86929580D02*
X138285714Y-86834342D01*
X138285714Y-86834342D02*
X138285714Y-86596247D01*
X138285714Y-86596247D02*
X138238095Y-86501009D01*
X138238095Y-86501009D02*
X138190476Y-86453390D01*
X138190476Y-86453390D02*
X138095238Y-86405771D01*
X138095238Y-86405771D02*
X137904762Y-86405771D01*
X137904762Y-86405771D02*
X137809524Y-86453390D01*
X137809524Y-86453390D02*
X137761905Y-86501009D01*
X137761905Y-86501009D02*
X137714286Y-86596247D01*
X124333333Y-99524819D02*
X124000000Y-99048628D01*
X123761905Y-99524819D02*
X123761905Y-98524819D01*
X123761905Y-98524819D02*
X124142857Y-98524819D01*
X124142857Y-98524819D02*
X124238095Y-98572438D01*
X124238095Y-98572438D02*
X124285714Y-98620057D01*
X124285714Y-98620057D02*
X124333333Y-98715295D01*
X124333333Y-98715295D02*
X124333333Y-98858152D01*
X124333333Y-98858152D02*
X124285714Y-98953390D01*
X124285714Y-98953390D02*
X124238095Y-99001009D01*
X124238095Y-99001009D02*
X124142857Y-99048628D01*
X124142857Y-99048628D02*
X123761905Y-99048628D01*
X125285714Y-99524819D02*
X124714286Y-99524819D01*
X125000000Y-99524819D02*
X125000000Y-98524819D01*
X125000000Y-98524819D02*
X124904762Y-98667676D01*
X124904762Y-98667676D02*
X124809524Y-98762914D01*
X124809524Y-98762914D02*
X124714286Y-98810533D01*
X149828333Y-96584580D02*
X149780714Y-96632200D01*
X149780714Y-96632200D02*
X149637857Y-96679819D01*
X149637857Y-96679819D02*
X149542619Y-96679819D01*
X149542619Y-96679819D02*
X149399762Y-96632200D01*
X149399762Y-96632200D02*
X149304524Y-96536961D01*
X149304524Y-96536961D02*
X149256905Y-96441723D01*
X149256905Y-96441723D02*
X149209286Y-96251247D01*
X149209286Y-96251247D02*
X149209286Y-96108390D01*
X149209286Y-96108390D02*
X149256905Y-95917914D01*
X149256905Y-95917914D02*
X149304524Y-95822676D01*
X149304524Y-95822676D02*
X149399762Y-95727438D01*
X149399762Y-95727438D02*
X149542619Y-95679819D01*
X149542619Y-95679819D02*
X149637857Y-95679819D01*
X149637857Y-95679819D02*
X149780714Y-95727438D01*
X149780714Y-95727438D02*
X149828333Y-95775057D01*
X150733095Y-95679819D02*
X150256905Y-95679819D01*
X150256905Y-95679819D02*
X150209286Y-96156009D01*
X150209286Y-96156009D02*
X150256905Y-96108390D01*
X150256905Y-96108390D02*
X150352143Y-96060771D01*
X150352143Y-96060771D02*
X150590238Y-96060771D01*
X150590238Y-96060771D02*
X150685476Y-96108390D01*
X150685476Y-96108390D02*
X150733095Y-96156009D01*
X150733095Y-96156009D02*
X150780714Y-96251247D01*
X150780714Y-96251247D02*
X150780714Y-96489342D01*
X150780714Y-96489342D02*
X150733095Y-96584580D01*
X150733095Y-96584580D02*
X150685476Y-96632200D01*
X150685476Y-96632200D02*
X150590238Y-96679819D01*
X150590238Y-96679819D02*
X150352143Y-96679819D01*
X150352143Y-96679819D02*
X150256905Y-96632200D01*
X150256905Y-96632200D02*
X150209286Y-96584580D01*
X142833333Y-108429580D02*
X142785714Y-108477200D01*
X142785714Y-108477200D02*
X142642857Y-108524819D01*
X142642857Y-108524819D02*
X142547619Y-108524819D01*
X142547619Y-108524819D02*
X142404762Y-108477200D01*
X142404762Y-108477200D02*
X142309524Y-108381961D01*
X142309524Y-108381961D02*
X142261905Y-108286723D01*
X142261905Y-108286723D02*
X142214286Y-108096247D01*
X142214286Y-108096247D02*
X142214286Y-107953390D01*
X142214286Y-107953390D02*
X142261905Y-107762914D01*
X142261905Y-107762914D02*
X142309524Y-107667676D01*
X142309524Y-107667676D02*
X142404762Y-107572438D01*
X142404762Y-107572438D02*
X142547619Y-107524819D01*
X142547619Y-107524819D02*
X142642857Y-107524819D01*
X142642857Y-107524819D02*
X142785714Y-107572438D01*
X142785714Y-107572438D02*
X142833333Y-107620057D01*
X143690476Y-107858152D02*
X143690476Y-108524819D01*
X143452381Y-107477200D02*
X143214286Y-108191485D01*
X143214286Y-108191485D02*
X143833333Y-108191485D01*
X94738095Y-77454819D02*
X94738095Y-78264342D01*
X94738095Y-78264342D02*
X94785714Y-78359580D01*
X94785714Y-78359580D02*
X94833333Y-78407200D01*
X94833333Y-78407200D02*
X94928571Y-78454819D01*
X94928571Y-78454819D02*
X95119047Y-78454819D01*
X95119047Y-78454819D02*
X95214285Y-78407200D01*
X95214285Y-78407200D02*
X95261904Y-78359580D01*
X95261904Y-78359580D02*
X95309523Y-78264342D01*
X95309523Y-78264342D02*
X95309523Y-77454819D01*
X95738095Y-77550057D02*
X95785714Y-77502438D01*
X95785714Y-77502438D02*
X95880952Y-77454819D01*
X95880952Y-77454819D02*
X96119047Y-77454819D01*
X96119047Y-77454819D02*
X96214285Y-77502438D01*
X96214285Y-77502438D02*
X96261904Y-77550057D01*
X96261904Y-77550057D02*
X96309523Y-77645295D01*
X96309523Y-77645295D02*
X96309523Y-77740533D01*
X96309523Y-77740533D02*
X96261904Y-77883390D01*
X96261904Y-77883390D02*
X95690476Y-78454819D01*
X95690476Y-78454819D02*
X96309523Y-78454819D01*
X138538095Y-94424819D02*
X138538095Y-95234342D01*
X138538095Y-95234342D02*
X138585714Y-95329580D01*
X138585714Y-95329580D02*
X138633333Y-95377200D01*
X138633333Y-95377200D02*
X138728571Y-95424819D01*
X138728571Y-95424819D02*
X138919047Y-95424819D01*
X138919047Y-95424819D02*
X139014285Y-95377200D01*
X139014285Y-95377200D02*
X139061904Y-95329580D01*
X139061904Y-95329580D02*
X139109523Y-95234342D01*
X139109523Y-95234342D02*
X139109523Y-94424819D01*
X140109523Y-95424819D02*
X139538095Y-95424819D01*
X139823809Y-95424819D02*
X139823809Y-94424819D01*
X139823809Y-94424819D02*
X139728571Y-94567676D01*
X139728571Y-94567676D02*
X139633333Y-94662914D01*
X139633333Y-94662914D02*
X139538095Y-94710533D01*
X63166666Y-78299819D02*
X63166666Y-79014104D01*
X63166666Y-79014104D02*
X63119047Y-79156961D01*
X63119047Y-79156961D02*
X63023809Y-79252200D01*
X63023809Y-79252200D02*
X62880952Y-79299819D01*
X62880952Y-79299819D02*
X62785714Y-79299819D01*
X63595238Y-78395057D02*
X63642857Y-78347438D01*
X63642857Y-78347438D02*
X63738095Y-78299819D01*
X63738095Y-78299819D02*
X63976190Y-78299819D01*
X63976190Y-78299819D02*
X64071428Y-78347438D01*
X64071428Y-78347438D02*
X64119047Y-78395057D01*
X64119047Y-78395057D02*
X64166666Y-78490295D01*
X64166666Y-78490295D02*
X64166666Y-78585533D01*
X64166666Y-78585533D02*
X64119047Y-78728390D01*
X64119047Y-78728390D02*
X63547619Y-79299819D01*
X63547619Y-79299819D02*
X64166666Y-79299819D01*
X113833333Y-81679580D02*
X113785714Y-81727200D01*
X113785714Y-81727200D02*
X113642857Y-81774819D01*
X113642857Y-81774819D02*
X113547619Y-81774819D01*
X113547619Y-81774819D02*
X113404762Y-81727200D01*
X113404762Y-81727200D02*
X113309524Y-81631961D01*
X113309524Y-81631961D02*
X113261905Y-81536723D01*
X113261905Y-81536723D02*
X113214286Y-81346247D01*
X113214286Y-81346247D02*
X113214286Y-81203390D01*
X113214286Y-81203390D02*
X113261905Y-81012914D01*
X113261905Y-81012914D02*
X113309524Y-80917676D01*
X113309524Y-80917676D02*
X113404762Y-80822438D01*
X113404762Y-80822438D02*
X113547619Y-80774819D01*
X113547619Y-80774819D02*
X113642857Y-80774819D01*
X113642857Y-80774819D02*
X113785714Y-80822438D01*
X113785714Y-80822438D02*
X113833333Y-80870057D01*
X114166667Y-80774819D02*
X114785714Y-80774819D01*
X114785714Y-80774819D02*
X114452381Y-81155771D01*
X114452381Y-81155771D02*
X114595238Y-81155771D01*
X114595238Y-81155771D02*
X114690476Y-81203390D01*
X114690476Y-81203390D02*
X114738095Y-81251009D01*
X114738095Y-81251009D02*
X114785714Y-81346247D01*
X114785714Y-81346247D02*
X114785714Y-81584342D01*
X114785714Y-81584342D02*
X114738095Y-81679580D01*
X114738095Y-81679580D02*
X114690476Y-81727200D01*
X114690476Y-81727200D02*
X114595238Y-81774819D01*
X114595238Y-81774819D02*
X114309524Y-81774819D01*
X114309524Y-81774819D02*
X114214286Y-81727200D01*
X114214286Y-81727200D02*
X114166667Y-81679580D01*
X128108333Y-102429580D02*
X128060714Y-102477200D01*
X128060714Y-102477200D02*
X127917857Y-102524819D01*
X127917857Y-102524819D02*
X127822619Y-102524819D01*
X127822619Y-102524819D02*
X127679762Y-102477200D01*
X127679762Y-102477200D02*
X127584524Y-102381961D01*
X127584524Y-102381961D02*
X127536905Y-102286723D01*
X127536905Y-102286723D02*
X127489286Y-102096247D01*
X127489286Y-102096247D02*
X127489286Y-101953390D01*
X127489286Y-101953390D02*
X127536905Y-101762914D01*
X127536905Y-101762914D02*
X127584524Y-101667676D01*
X127584524Y-101667676D02*
X127679762Y-101572438D01*
X127679762Y-101572438D02*
X127822619Y-101524819D01*
X127822619Y-101524819D02*
X127917857Y-101524819D01*
X127917857Y-101524819D02*
X128060714Y-101572438D01*
X128060714Y-101572438D02*
X128108333Y-101620057D01*
X129060714Y-102524819D02*
X128489286Y-102524819D01*
X128775000Y-102524819D02*
X128775000Y-101524819D01*
X128775000Y-101524819D02*
X128679762Y-101667676D01*
X128679762Y-101667676D02*
X128584524Y-101762914D01*
X128584524Y-101762914D02*
X128489286Y-101810533D01*
%TO.C,J1*%
D11*
X156120000Y-104080000D02*
X157500000Y-104080000D01*
X156120000Y-105460000D02*
X156120000Y-104080000D01*
X156120000Y-106730000D02*
X156120000Y-111920000D01*
X156120000Y-106730000D02*
X158880000Y-106730000D01*
X156120000Y-111920000D02*
X158880000Y-111920000D01*
X158880000Y-106730000D02*
X158880000Y-111920000D01*
%TO.C,C2*%
X78238748Y-81235000D02*
X78761252Y-81235000D01*
X78238748Y-79765000D02*
X78761252Y-79765000D01*
%TO.C,C6*%
X137359420Y-88510000D02*
X137640580Y-88510000D01*
X137359420Y-87490000D02*
X137640580Y-87490000D01*
%TO.C,R1*%
X124262742Y-101022500D02*
X124737258Y-101022500D01*
X124262742Y-99977500D02*
X124737258Y-99977500D01*
%TO.C,C5*%
X149859420Y-98010000D02*
X150140580Y-98010000D01*
X149859420Y-96990000D02*
X150140580Y-96990000D01*
%TO.C,C4*%
X142859420Y-110010000D02*
X143140580Y-110010000D01*
X142859420Y-108990000D02*
X143140580Y-108990000D01*
%TO.C,U2*%
X93650000Y-79090000D02*
X97410000Y-79090000D01*
X93650000Y-85910000D02*
X97410000Y-85910000D01*
X97410000Y-79090000D02*
X97410000Y-80350000D01*
X97410000Y-85910000D02*
X97410000Y-84650000D01*
X92370000Y-79190000D02*
X92130000Y-78860000D01*
X92610000Y-78860000D01*
X92370000Y-79190000D01*
G36*
X92370000Y-79190000D02*
G01*
X92130000Y-78860000D01*
X92610000Y-78860000D01*
X92370000Y-79190000D01*
G37*
%TO.C,U1*%
X135690000Y-96190000D02*
X136165000Y-96190000D01*
X135690000Y-96665000D02*
X135690000Y-96190000D01*
X135690000Y-103410000D02*
X135690000Y-102935000D01*
X136165000Y-103410000D02*
X135690000Y-103410000D01*
X142435000Y-96190000D02*
X142910000Y-96190000D01*
X142910000Y-96190000D02*
X142910000Y-96665000D01*
X142910000Y-102935000D02*
X142910000Y-103410000D01*
X142910000Y-103410000D02*
X142435000Y-103410000D01*
X135160000Y-97050000D02*
X134830000Y-97290000D01*
X134830000Y-96810000D01*
X135160000Y-97050000D01*
G36*
X135160000Y-97050000D02*
G01*
X134830000Y-97290000D01*
X134830000Y-96810000D01*
X135160000Y-97050000D01*
G37*
%TO.C,J2*%
X62120000Y-79845000D02*
X63500000Y-79845000D01*
X62120000Y-81225000D02*
X62120000Y-79845000D01*
X62120000Y-82495000D02*
X62120000Y-85145000D01*
X62120000Y-82495000D02*
X64880000Y-82495000D01*
X62120000Y-85145000D02*
X64880000Y-85145000D01*
X64880000Y-82495000D02*
X64880000Y-85145000D01*
%TO.C,C3*%
X113738748Y-82265000D02*
X114261252Y-82265000D01*
X113738748Y-83735000D02*
X114261252Y-83735000D01*
%TO.C,C1*%
X128134420Y-102990000D02*
X128415580Y-102990000D01*
X128134420Y-104010000D02*
X128415580Y-104010000D01*
%TD*%
M02*
