%TF.GenerationSoftware,KiCad,Pcbnew,10.0.5*%
%TF.CreationDate,2026-08-22T04:15:36-04:00*%
%TF.ProjectId,Virtual_Temperature_Monitoring_PCB,56697274-7561-46c5-9f54-656d70657261,rev?*%
%TF.SameCoordinates,Original*%
%TF.FileFunction,Soldermask,Top*%
%TF.FilePolarity,Negative*%
%FSLAX46Y46*%
G04 Gerber Fmt 4.6, Leading zero omitted, Abs format (unit mm)*
G04 Created by KiCad (PCBNEW 10.0.5) date 2026-08-22 04:15:36*
%MOMM*%
%LPD*%
G01*
G04 APERTURE LIST*
G04 Aperture macros list*
%AMRoundRect*
0 Rectangle with rounded corners*
0 $1 Rounding radius*
0 $2 $3 $4 $5 $6 $7 $8 $9 X,Y pos of 4 corners*
0 Add a 4 corners polygon primitive as box body*
4,1,4,$2,$3,$4,$5,$6,$7,$8,$9,$2,$3,0*
0 Add four circle primitives for the rounded corners*
1,1,$1+$1,$2,$3*
1,1,$1+$1,$4,$5*
1,1,$1+$1,$6,$7*
1,1,$1+$1,$8,$9*
0 Add four rect primitives between the rounded corners*
20,1,$1+$1,$2,$3,$4,$5,0*
20,1,$1+$1,$4,$5,$6,$7,0*
20,1,$1+$1,$6,$7,$8,$9,0*
20,1,$1+$1,$8,$9,$2,$3,0*%
G04 Aperture macros list end*
%ADD10R,1.700000X1.700000*%
%ADD11C,1.700000*%
%ADD12RoundRect,0.250000X-0.250000X-0.475000X0.250000X-0.475000X0.250000X0.475000X-0.250000X0.475000X0*%
%ADD13RoundRect,0.225000X-0.225000X-0.250000X0.225000X-0.250000X0.225000X0.250000X-0.225000X0.250000X0*%
%ADD14RoundRect,0.200000X-0.200000X-0.275000X0.200000X-0.275000X0.200000X0.275000X-0.200000X0.275000X0*%
%ADD15RoundRect,0.375000X-0.625000X-0.375000X0.625000X-0.375000X0.625000X0.375000X-0.625000X0.375000X0*%
%ADD16RoundRect,0.500000X-0.500000X-1.400000X0.500000X-1.400000X0.500000X1.400000X-0.500000X1.400000X0*%
%ADD17RoundRect,0.062500X-0.375000X-0.062500X0.375000X-0.062500X0.375000X0.062500X-0.375000X0.062500X0*%
%ADD18RoundRect,0.062500X-0.062500X-0.375000X0.062500X-0.375000X0.062500X0.375000X-0.062500X0.375000X0*%
%ADD19R,5.600000X5.600000*%
G04 APERTURE END LIST*
D10*
%TO.C,J1*%
X157500000Y-105460000D03*
D11*
X157500000Y-108000000D03*
X157500000Y-110540000D03*
%TD*%
D12*
%TO.C,C2*%
X79450000Y-80500000D03*
X77550000Y-80500000D03*
%TD*%
D13*
%TO.C,C6*%
X138275000Y-88000000D03*
X136725000Y-88000000D03*
%TD*%
D14*
%TO.C,R1*%
X125325000Y-100500000D03*
X123675000Y-100500000D03*
%TD*%
D13*
%TO.C,C5*%
X150775000Y-97500000D03*
X149225000Y-97500000D03*
%TD*%
%TO.C,C4*%
X143775000Y-109500000D03*
X142225000Y-109500000D03*
%TD*%
D15*
%TO.C,U2*%
X92350000Y-80200000D03*
X92350000Y-82500000D03*
D16*
X98650000Y-82500000D03*
D15*
X92350000Y-84800000D03*
%TD*%
D17*
%TO.C,U1*%
X135862500Y-97050000D03*
X135862500Y-97550000D03*
X135862500Y-98050000D03*
X135862500Y-98550000D03*
X135862500Y-99050000D03*
X135862500Y-99550000D03*
X135862500Y-100050000D03*
X135862500Y-100550000D03*
X135862500Y-101050000D03*
X135862500Y-101550000D03*
X135862500Y-102050000D03*
X135862500Y-102550000D03*
D18*
X136550000Y-103237500D03*
X137050000Y-103237500D03*
X137550000Y-103237500D03*
X138050000Y-103237500D03*
X138550000Y-103237500D03*
X139050000Y-103237500D03*
X139550000Y-103237500D03*
X140050000Y-103237500D03*
X140550000Y-103237500D03*
X141050000Y-103237500D03*
X141550000Y-103237500D03*
X142050000Y-103237500D03*
D17*
X142737500Y-102550000D03*
X142737500Y-102050000D03*
X142737500Y-101550000D03*
X142737500Y-101050000D03*
X142737500Y-100550000D03*
X142737500Y-100050000D03*
X142737500Y-99550000D03*
X142737500Y-99050000D03*
X142737500Y-98550000D03*
X142737500Y-98050000D03*
X142737500Y-97550000D03*
X142737500Y-97050000D03*
D18*
X142050000Y-96362500D03*
X141550000Y-96362500D03*
X141050000Y-96362500D03*
X140550000Y-96362500D03*
X140050000Y-96362500D03*
X139550000Y-96362500D03*
X139050000Y-96362500D03*
X138550000Y-96362500D03*
X138050000Y-96362500D03*
X137550000Y-96362500D03*
X137050000Y-96362500D03*
X136550000Y-96362500D03*
D19*
X139300000Y-99800000D03*
%TD*%
D10*
%TO.C,J2*%
X63500000Y-81225000D03*
D11*
X63500000Y-83765000D03*
%TD*%
D12*
%TO.C,C3*%
X113050000Y-83000000D03*
X114950000Y-83000000D03*
%TD*%
D13*
%TO.C,C1*%
X127500000Y-103500000D03*
X129050000Y-103500000D03*
%TD*%
M02*
